<svg id="svg" xmlns="http://www.w3.org/2000/svg" xmlns:xlink="http://www.w3.org/1999/xlink" width="400" height="112.79620853080569" viewBox="0, 0, 400,112.79620853080569"><g id="svgg"><path id="path0" d="M0.000 56.333 L 0.000 112.667 200.000 112.667 L 400.000 112.667 400.000 56.333 L 400.000 0.000 200.000 0.000 L 0.000 0.000 0.000 56.333 M72.091 28.580 C 72.362 28.762,73.015 29.001,73.543 29.112 C 74.071 29.223,74.721 29.468,74.986 29.657 C 75.251 29.845,75.572 30.000,75.698 30.000 C 75.912 30.000,77.495 30.932,77.952 31.327 C 78.064 31.423,78.439 31.694,78.786 31.929 C 79.838 32.643,80.547 33.356,82.122 35.289 C 82.513 35.769,82.835 36.219,82.836 36.289 C 82.838 36.359,83.017 36.585,83.235 36.792 C 83.453 36.998,83.682 37.373,83.744 37.625 C 83.807 37.877,83.996 38.233,84.164 38.417 C 84.332 38.600,84.559 39.085,84.668 39.494 C 84.777 39.903,85.008 40.420,85.183 40.642 C 85.357 40.863,85.500 41.253,85.500 41.508 C 85.500 41.762,85.666 42.446,85.869 43.027 C 86.233 44.070,86.238 44.223,86.291 55.294 L 86.345 66.505 85.891 67.294 C 84.052 70.494,79.765 70.543,78.149 67.382 L 77.667 66.439 77.664 56.678 C 77.661 46.852,77.538 44.014,77.097 43.573 C 76.967 43.443,76.768 43.054,76.656 42.710 C 76.544 42.365,76.288 41.887,76.089 41.647 C 75.889 41.407,75.628 40.976,75.509 40.689 C 75.390 40.402,75.244 40.167,75.183 40.167 C 75.123 40.167,74.588 39.718,73.995 39.170 C 73.402 38.621,72.829 38.171,72.721 38.170 C 72.614 38.168,72.301 37.978,72.027 37.747 C 71.723 37.491,71.150 37.257,70.560 37.148 C 70.027 37.050,69.377 36.817,69.116 36.630 C 68.522 36.207,65.443 36.256,64.583 36.702 C 64.308 36.845,63.658 37.050,63.138 37.157 C 62.618 37.264,62.099 37.464,61.984 37.602 C 61.870 37.740,61.546 37.953,61.263 38.076 C 59.756 38.733,57.169 41.946,56.899 43.496 C 56.842 43.819,56.673 44.271,56.523 44.500 C 56.278 44.873,56.241 46.205,56.164 57.333 C 56.079 69.625,56.075 69.757,55.721 70.422 C 55.524 70.792,55.284 71.528,55.186 72.058 C 55.088 72.588,54.861 73.208,54.682 73.435 C 54.503 73.663,54.308 74.070,54.248 74.341 C 54.189 74.612,54.002 74.930,53.832 75.049 C 53.662 75.168,53.475 75.457,53.416 75.692 C 53.357 75.927,53.090 76.359,52.821 76.653 C 52.553 76.947,52.333 77.253,52.333 77.334 C 52.333 77.634,49.177 80.706,48.314 81.246 C 47.820 81.554,47.210 81.969,46.957 82.167 C 46.704 82.365,46.246 82.597,45.939 82.682 C 45.633 82.766,45.213 82.982,45.008 83.160 C 44.802 83.339,44.287 83.537,43.863 83.600 C 43.439 83.664,42.760 83.892,42.355 84.108 C 41.653 84.481,41.459 84.500,38.379 84.500 L 35.140 84.500 34.161 83.481 C 32.452 81.701,32.437 79.182,34.127 77.637 C 34.194 77.575,34.472 77.319,34.743 77.069 C 35.179 76.665,35.427 76.596,36.909 76.462 C 37.847 76.377,38.886 76.177,39.272 76.007 C 39.651 75.839,40.268 75.651,40.642 75.587 C 41.017 75.524,41.496 75.337,41.706 75.171 C 41.917 75.006,42.350 74.757,42.669 74.619 C 43.320 74.337,45.333 72.514,45.333 72.206 C 45.333 72.097,45.516 71.888,45.739 71.742 C 45.963 71.595,46.195 71.253,46.254 70.980 C 46.314 70.708,46.544 70.290,46.765 70.052 C 47.010 69.787,47.167 69.416,47.167 69.101 C 47.167 68.816,47.279 67.946,47.417 67.167 C 47.621 66.009,47.666 63.837,47.666 55.294 C 47.667 49.294,47.734 44.535,47.825 44.127 C 47.912 43.736,48.072 42.892,48.181 42.250 C 48.290 41.608,48.508 40.821,48.667 40.500 C 48.825 40.179,49.049 39.617,49.165 39.250 C 49.280 38.883,49.500 38.433,49.652 38.250 C 49.805 38.067,50.058 37.635,50.213 37.292 C 50.368 36.948,50.571 36.667,50.664 36.667 C 50.757 36.667,50.833 36.559,50.833 36.428 C 50.833 35.652,54.780 31.799,56.458 30.936 C 56.756 30.783,57.000 30.591,57.000 30.509 C 57.000 30.427,57.369 30.237,57.821 30.088 C 58.272 29.938,58.724 29.715,58.826 29.592 C 58.928 29.469,59.515 29.277,60.131 29.166 C 60.746 29.054,61.342 28.847,61.454 28.706 C 61.965 28.061,71.156 27.953,72.091 28.580 M114.543 29.016 C 115.986 30.480,116.459 33.213,115.455 34.290 C 113.871 35.992,113.552 36.160,111.602 36.332 C 110.635 36.417,109.632 36.595,109.374 36.729 C 109.116 36.862,108.608 37.024,108.244 37.089 C 107.881 37.154,107.252 37.423,106.846 37.687 C 106.441 37.951,106.031 38.167,105.936 38.167 C 105.840 38.167,105.609 38.314,105.423 38.494 C 105.236 38.674,104.736 39.142,104.312 39.535 C 103.888 39.928,103.490 40.419,103.426 40.625 C 103.363 40.831,103.242 41.000,103.158 41.000 C 102.918 41.000,101.888 43.206,101.684 44.158 C 101.560 44.736,101.500 48.677,101.500 56.241 C 101.500 66.857,101.483 67.522,101.178 68.524 C 101.001 69.107,100.779 70.011,100.685 70.535 C 100.591 71.058,100.370 71.770,100.194 72.118 C 100.018 72.466,99.823 72.986,99.761 73.274 C 99.699 73.563,99.506 73.927,99.333 74.083 C 99.160 74.240,98.972 74.579,98.916 74.837 C 98.859 75.096,98.630 75.504,98.406 75.745 C 98.183 75.987,98.000 76.238,98.000 76.305 C 98.000 76.441,97.235 77.364,96.591 78.006 C 96.358 78.239,96.167 78.514,96.167 78.617 C 96.167 78.879,93.278 81.362,92.618 81.667 C 92.321 81.804,91.854 82.076,91.580 82.270 C 91.307 82.464,90.897 82.681,90.670 82.752 C 90.442 82.822,90.067 83.019,89.837 83.189 C 89.606 83.359,89.042 83.545,88.583 83.604 C 88.088 83.667,87.593 83.854,87.362 84.064 C 86.651 84.710,76.500 84.656,76.500 84.005 C 76.500 83.924,76.069 83.771,75.542 83.666 C 75.015 83.562,74.388 83.337,74.149 83.168 C 73.911 82.998,73.416 82.779,73.051 82.680 C 72.685 82.582,72.250 82.351,72.084 82.167 C 71.918 81.984,71.689 81.833,71.576 81.833 C 71.033 81.833,66.584 77.653,65.917 76.515 C 65.733 76.203,65.468 75.748,65.328 75.504 C 65.187 75.260,64.906 74.850,64.703 74.591 C 64.500 74.333,64.333 73.998,64.333 73.846 C 64.333 73.695,64.185 73.280,64.004 72.924 C 63.581 72.094,63.354 71.400,63.176 70.392 C 63.098 69.947,62.911 68.908,62.762 68.083 C 62.525 66.782,62.496 65.237,62.536 56.417 L 62.583 46.250 63.068 45.333 C 63.335 44.829,63.620 44.390,63.702 44.358 C 63.784 44.326,64.017 44.121,64.219 43.903 C 64.454 43.649,64.910 43.445,65.485 43.336 C 65.979 43.242,66.485 43.082,66.608 42.979 C 66.764 42.850,66.898 42.846,67.042 42.964 C 67.156 43.059,67.686 43.216,68.218 43.314 C 69.306 43.514,69.500 43.600,69.501 43.885 C 69.502 43.994,69.727 44.211,70.001 44.367 C 70.275 44.523,70.500 44.756,70.500 44.883 C 70.500 45.011,70.650 45.251,70.833 45.417 C 71.160 45.712,71.167 45.930,71.167 55.984 C 71.167 67.707,71.338 69.299,72.779 71.013 C 72.900 71.158,73.000 71.372,73.000 71.490 C 73.000 72.340,77.497 75.677,78.633 75.669 C 78.844 75.668,79.331 75.821,79.716 76.009 C 80.710 76.495,83.335 76.514,84.177 76.041 C 84.495 75.862,85.092 75.665,85.503 75.603 C 85.914 75.540,86.587 75.269,87.000 75.000 C 87.412 74.731,88.009 74.339,88.327 74.130 C 89.144 73.591,90.471 72.191,90.840 71.479 C 91.012 71.146,91.259 70.834,91.389 70.784 C 91.518 70.734,91.678 70.407,91.744 70.058 C 91.809 69.708,92.023 69.121,92.220 68.753 C 92.572 68.092,92.577 67.929,92.678 55.917 C 92.778 44.133,92.839 42.770,93.314 41.883 C 93.402 41.718,93.600 41.096,93.754 40.500 C 93.908 39.904,94.126 39.304,94.239 39.167 C 94.351 39.029,94.575 38.560,94.736 38.125 C 94.896 37.690,95.092 37.333,95.170 37.333 C 95.248 37.333,95.407 37.069,95.524 36.746 C 95.641 36.424,95.908 36.047,96.118 35.909 C 96.328 35.772,96.500 35.570,96.500 35.461 C 96.500 35.352,96.690 35.072,96.921 34.840 C 97.153 34.607,97.655 34.060,98.036 33.625 C 98.418 33.190,98.823 32.833,98.937 32.833 C 99.051 32.833,99.190 32.702,99.246 32.542 C 99.339 32.274,99.984 31.771,101.500 30.784 C 102.633 30.046,104.462 29.202,105.185 29.084 C 105.587 29.018,106.048 28.848,106.209 28.706 C 106.682 28.288,107.573 28.193,110.769 28.223 L 113.789 28.250 114.543 29.016 M146.923 42.838 C 147.286 43.025,148.071 43.246,148.667 43.331 C 149.386 43.434,149.835 43.591,150.004 43.798 C 150.144 43.970,150.548 44.158,150.903 44.216 C 151.258 44.273,151.706 44.465,151.899 44.643 C 152.092 44.820,152.512 45.107,152.833 45.281 C 154.857 46.377,154.990 47.433,153.319 49.143 C 153.083 49.385,152.800 49.750,152.692 49.953 C 152.307 50.673,151.199 50.787,150.596 50.168 C 149.970 49.524,149.111 48.922,148.333 48.579 C 148.012 48.438,147.525 48.194,147.250 48.036 C 146.836 47.799,146.304 47.750,144.167 47.750 C 142.029 47.750,141.497 47.799,141.083 48.036 C 140.808 48.194,140.321 48.429,140.000 48.559 C 139.224 48.873,137.064 50.888,136.665 51.670 C 136.490 52.012,136.242 52.333,136.113 52.382 C 135.979 52.434,135.835 52.817,135.777 53.278 C 135.594 54.730,135.398 55.577,135.158 55.956 C 134.952 56.282,134.957 56.398,135.196 56.873 C 135.508 57.491,135.833 58.780,135.833 59.394 C 135.833 59.622,136.021 60.031,136.250 60.303 C 136.479 60.575,136.667 60.879,136.667 60.978 C 136.667 61.231,138.647 63.148,139.206 63.437 C 139.459 63.568,139.667 63.745,139.667 63.831 C 139.667 63.917,139.978 64.071,140.359 64.173 C 140.739 64.276,141.319 64.504,141.648 64.680 C 142.610 65.196,145.787 65.135,146.917 64.580 C 147.375 64.354,147.919 64.169,148.127 64.168 C 148.334 64.167,148.631 64.017,148.788 63.834 C 148.944 63.652,149.336 63.415,149.657 63.309 C 149.979 63.203,150.380 62.940,150.550 62.725 C 151.198 61.901,152.080 62.153,153.375 63.532 C 154.820 65.073,154.902 65.658,153.792 66.526 C 153.402 66.831,153.008 67.141,152.917 67.214 C 152.387 67.639,150.891 68.500,150.683 68.500 C 150.548 68.500,150.279 68.650,150.083 68.833 C 149.883 69.022,149.299 69.242,148.739 69.341 C 148.195 69.436,147.399 69.661,146.969 69.841 C 145.790 70.333,141.803 70.319,140.845 69.820 C 140.479 69.629,139.783 69.416,139.298 69.346 C 138.813 69.277,138.049 69.020,137.600 68.776 C 137.151 68.533,136.701 68.333,136.600 68.333 C 136.499 68.333,136.199 68.146,135.932 67.916 C 135.666 67.687,135.397 67.500,135.334 67.500 C 134.455 67.500,130.508 62.151,130.496 60.944 C 130.495 60.746,130.307 60.058,130.081 59.417 C 129.525 57.846,129.483 54.670,130.003 53.526 C 130.183 53.128,130.401 52.365,130.487 51.832 C 130.663 50.742,130.937 50.184,132.083 48.573 C 132.629 47.806,135.048 45.442,135.655 45.083 C 138.409 43.452,138.666 43.333,139.433 43.333 C 139.751 43.333,140.290 43.206,140.630 43.051 C 141.710 42.559,141.872 42.534,144.090 42.517 C 145.967 42.502,146.353 42.546,146.923 42.838 M179.745 42.604 C 180.125 42.750,181.110 44.339,181.333 45.164 C 181.434 45.542,181.656 45.989,181.824 46.158 C 181.993 46.327,182.182 46.766,182.245 47.134 C 182.307 47.502,182.496 47.929,182.665 48.082 C 182.835 48.236,183.060 48.724,183.167 49.168 C 183.273 49.612,183.455 50.011,183.571 50.056 C 183.687 50.100,183.882 50.499,184.004 50.943 C 184.126 51.387,184.394 52.012,184.598 52.333 C 184.802 52.654,185.023 53.179,185.089 53.500 C 185.155 53.821,185.346 54.346,185.515 54.667 C 186.153 55.881,186.790 57.273,186.997 57.903 C 187.115 58.262,187.344 58.787,187.506 59.070 C 187.668 59.352,187.850 59.818,187.909 60.104 C 187.969 60.391,188.200 60.873,188.423 61.176 C 188.647 61.478,188.877 61.994,188.935 62.321 C 188.993 62.649,189.211 63.104,189.420 63.333 C 189.628 63.563,189.850 64.062,189.912 64.443 C 189.974 64.825,190.167 65.266,190.342 65.425 C 190.517 65.583,190.711 65.983,190.773 66.313 C 190.835 66.643,191.105 67.269,191.373 67.705 C 192.390 69.358,191.755 70.000,189.103 70.000 C 186.885 70.000,186.004 69.627,185.663 68.542 C 185.487 67.985,185.265 67.470,184.275 65.333 C 184.127 65.012,183.864 64.571,183.692 64.351 L 183.380 63.953 177.605 63.966 C 171.478 63.980,170.833 64.069,170.833 64.895 C 170.833 65.009,170.653 65.472,170.434 65.926 C 170.214 66.379,169.942 67.041,169.830 67.396 C 169.201 69.396,168.282 70.001,165.880 69.998 C 163.542 69.994,162.629 69.319,163.487 68.229 C 163.677 67.987,163.834 67.705,163.834 67.603 C 163.834 67.500,164.059 66.967,164.333 66.417 C 164.608 65.867,164.832 65.333,164.833 65.231 C 164.833 65.129,164.976 64.863,165.151 64.642 C 165.325 64.420,165.550 63.932,165.651 63.558 C 165.752 63.183,165.980 62.692,166.158 62.466 C 166.336 62.239,166.569 61.707,166.676 61.282 C 166.783 60.858,166.974 60.424,167.101 60.319 C 167.227 60.214,167.411 59.829,167.510 59.464 C 167.608 59.098,168.086 57.963,168.571 56.941 C 169.057 55.919,169.549 54.783,169.665 54.417 C 169.781 54.050,169.970 53.637,170.086 53.500 C 170.202 53.362,170.350 52.987,170.416 52.667 C 170.482 52.346,170.753 51.752,171.018 51.346 C 171.283 50.941,171.500 50.439,171.500 50.230 C 171.500 50.021,171.678 49.658,171.896 49.424 C 172.113 49.189,172.337 48.710,172.393 48.360 C 172.449 48.010,172.641 47.591,172.819 47.430 C 172.997 47.269,173.193 46.840,173.254 46.477 C 173.315 46.113,173.515 45.677,173.697 45.508 C 173.879 45.338,174.100 44.878,174.188 44.486 C 174.290 44.034,174.574 43.541,174.966 43.137 L 175.583 42.500 177.528 42.500 C 178.598 42.500,179.595 42.547,179.745 42.604 M216.083 42.868 C 216.358 43.024,217.176 43.225,217.901 43.314 C 218.723 43.415,219.382 43.596,219.651 43.794 C 219.889 43.969,220.289 44.163,220.540 44.225 C 220.790 44.288,221.118 44.525,221.267 44.753 C 221.416 44.980,221.630 45.167,221.741 45.167 C 221.969 45.167,223.167 46.481,223.167 46.730 C 223.167 46.818,223.297 47.034,223.455 47.210 C 223.750 47.535,224.400 49.113,224.674 50.167 C 224.909 51.070,224.860 53.329,224.585 54.339 C 224.448 54.840,224.254 55.608,224.153 56.047 C 224.053 56.485,223.789 57.058,223.568 57.321 C 223.347 57.583,223.166 57.862,223.164 57.941 C 223.160 58.171,221.629 59.739,221.083 60.072 C 219.672 60.934,219.661 61.392,221.007 62.990 C 221.363 63.411,221.825 64.056,222.035 64.423 C 222.853 65.854,223.099 66.235,223.542 66.755 C 223.794 67.051,224.000 67.378,224.000 67.481 C 224.000 67.585,224.188 67.832,224.417 68.031 C 224.661 68.244,224.833 68.572,224.833 68.826 C 224.833 70.532,219.437 70.586,218.727 68.888 C 218.600 68.583,218.420 68.333,218.328 68.333 C 218.236 68.333,218.031 68.052,217.872 67.708 C 217.713 67.365,217.529 67.043,217.463 66.993 C 217.396 66.943,217.171 66.604,216.963 66.239 C 216.205 64.916,215.910 64.449,215.537 63.991 C 215.329 63.735,215.082 63.313,214.989 63.054 C 214.632 62.062,214.272 61.962,211.059 61.963 C 209.458 61.963,208.096 62.015,208.032 62.078 C 207.969 62.142,207.879 63.774,207.833 65.704 L 207.750 69.215 207.280 69.566 C 206.455 70.182,203.337 70.186,202.854 69.571 L 202.494 69.114 202.539 56.044 C 202.583 43.192,202.589 42.969,202.917 42.728 C 203.449 42.337,215.372 42.463,216.083 42.868 M251.578 42.958 C 252.124 43.165,252.843 43.333,253.174 43.333 C 253.506 43.333,254.146 43.521,254.597 43.749 C 255.048 43.978,255.499 44.166,255.600 44.166 C 255.701 44.166,256.094 44.392,256.474 44.667 C 256.853 44.942,257.238 45.167,257.329 45.167 C 257.595 45.167,259.998 47.350,260.003 47.596 C 260.004 47.681,260.192 47.927,260.420 48.142 C 260.647 48.358,260.835 48.621,260.838 48.726 C 260.841 48.831,261.066 49.211,261.338 49.571 C 261.610 49.931,261.833 50.324,261.833 50.444 C 261.833 50.564,262.064 51.356,262.346 52.205 C 263.015 54.220,263.027 59.064,262.366 60.583 C 262.167 61.042,261.929 61.717,261.838 62.083 C 261.746 62.450,261.446 63.012,261.170 63.333 C 260.893 63.654,260.667 64.000,260.667 64.102 C 260.667 64.276,258.658 66.384,257.917 66.989 C 257.074 67.677,255.697 68.478,255.167 68.588 C 254.846 68.655,254.414 68.843,254.207 69.005 C 253.974 69.188,253.372 69.345,252.624 69.419 C 251.960 69.485,251.214 69.643,250.967 69.769 C 250.389 70.065,238.758 70.110,238.119 69.819 C 237.133 69.370,237.167 69.851,237.167 56.370 C 237.167 43.245,237.172 43.145,237.957 42.677 C 238.609 42.288,250.449 42.533,251.578 42.958 M281.408 43.158 C 281.733 43.474,282.000 43.830,282.000 43.949 C 282.000 44.069,282.059 44.167,282.132 44.167 C 282.205 44.167,282.673 44.739,283.174 45.438 C 283.674 46.138,284.165 46.795,284.265 46.900 C 284.365 47.005,284.546 47.276,284.667 47.503 C 284.787 47.731,285.024 48.015,285.193 48.134 C 285.362 48.254,285.500 48.455,285.500 48.581 C 285.500 48.706,285.677 48.949,285.894 49.119 C 286.111 49.290,286.422 49.689,286.586 50.006 C 286.749 50.324,287.022 50.681,287.191 50.801 C 287.361 50.921,287.500 51.123,287.500 51.250 C 287.500 51.377,287.659 51.593,287.854 51.729 C 288.048 51.865,288.292 52.126,288.396 52.308 C 288.499 52.490,288.945 53.102,289.386 53.669 C 289.828 54.236,290.271 54.880,290.371 55.100 C 290.471 55.320,290.619 55.500,290.699 55.500 C 290.779 55.500,290.999 55.762,291.189 56.083 C 291.378 56.404,291.629 56.667,291.746 56.667 C 291.863 56.667,292.062 56.791,292.188 56.943 C 292.383 57.178,292.429 56.176,292.500 50.178 L 292.583 43.137 292.993 42.805 C 293.576 42.334,298.969 42.397,299.453 42.881 C 299.745 43.174,300.032 67.814,299.756 68.943 C 299.561 69.741,298.418 70.037,295.776 69.974 L 293.388 69.917 292.736 69.350 C 292.377 69.038,291.952 68.536,291.792 68.234 C 291.632 67.931,291.407 67.624,291.292 67.550 C 291.059 67.401,290.000 66.071,290.000 65.928 C 290.000 65.824,289.024 64.503,288.391 63.750 C 287.778 63.021,286.392 61.181,285.911 60.458 C 285.683 60.115,285.422 59.833,285.331 59.833 C 285.241 59.833,285.167 59.721,285.167 59.583 C 285.167 59.446,285.035 59.200,284.875 59.036 C 284.715 58.873,284.358 58.449,284.083 58.094 C 282.537 56.097,282.167 55.566,282.167 55.345 C 282.167 55.149,282.125 55.142,281.958 55.308 C 281.799 55.467,281.743 57.119,281.723 62.266 C 281.691 70.072,281.755 69.736,280.265 69.922 C 278.090 70.194,275.383 69.959,274.879 69.455 L 274.417 68.993 274.367 56.871 C 274.302 40.910,273.905 42.442,278.081 42.527 L 280.815 42.583 281.408 43.158 M333.700 42.800 C 334.140 43.238,334.097 48.125,333.650 48.601 L 333.275 49.000 327.064 49.000 L 320.852 49.000 320.593 49.370 C 320.257 49.850,320.222 52.534,320.549 52.804 C 320.689 52.921,322.703 53.000,326.378 53.033 L 331.993 53.083 332.445 53.536 C 332.997 54.088,333.228 57.325,332.806 58.579 C 332.444 59.655,332.404 59.661,326.242 59.664 C 322.182 59.666,320.681 59.719,320.533 59.867 C 320.223 60.177,320.269 62.835,320.593 63.296 L 320.852 63.667 327.151 63.667 C 333.439 63.667,333.452 63.667,334.017 64.048 L 334.583 64.429 334.632 66.506 C 334.691 69.074,334.665 69.179,333.849 69.638 L 333.187 70.010 323.180 69.963 L 313.174 69.917 312.748 69.491 L 312.323 69.065 312.323 56.391 C 312.323 43.553,312.346 43.038,312.949 42.683 C 313.425 42.403,333.415 42.515,333.700 42.800 M366.786 42.880 C 367.039 43.133,367.091 43.544,367.137 45.639 C 367.212 49.124,367.478 48.902,363.140 48.968 C 359.881 49.018,359.739 49.034,359.462 49.385 C 359.197 49.721,359.174 50.509,359.170 59.335 L 359.167 68.920 358.745 69.375 C 358.170 69.995,357.891 70.039,355.022 69.974 C 352.793 69.923,352.473 69.879,352.053 69.565 L 351.583 69.214 351.497 59.315 C 351.449 53.871,351.393 49.401,351.372 49.383 C 351.101 49.144,349.552 49.002,347.211 49.001 L 344.339 49.000 343.812 48.529 L 343.285 48.059 343.268 45.922 C 343.249 43.605,343.427 42.989,344.209 42.669 C 345.004 42.345,366.450 42.545,366.786 42.880 M243.008 47.725 C 242.820 47.914,242.754 63.935,242.938 64.625 C 243.103 65.238,250.193 65.205,251.525 64.585 C 252.015 64.357,252.536 64.169,252.683 64.168 C 252.829 64.167,253.091 64.009,253.265 63.816 C 253.440 63.624,253.785 63.361,254.034 63.233 C 254.561 62.960,255.667 61.860,255.667 61.609 C 255.667 61.513,255.845 61.243,256.063 61.009 C 256.281 60.775,256.583 60.201,256.735 59.733 C 256.886 59.266,257.118 58.741,257.250 58.566 C 257.603 58.099,257.597 54.712,257.241 54.205 C 257.099 54.002,256.866 53.442,256.723 52.960 C 256.465 52.093,256.081 51.541,254.839 50.250 C 254.087 49.468,252.803 48.500,252.519 48.500 C 252.409 48.500,252.010 48.342,251.632 48.149 C 251.023 47.839,250.583 47.790,247.847 47.728 C 246.144 47.689,244.397 47.634,243.966 47.604 C 243.535 47.575,243.104 47.629,243.008 47.725 M208.167 47.816 C 207.958 47.959,207.908 48.689,207.865 52.248 L 207.812 56.508 208.401 56.754 C 210.250 57.527,217.808 56.770,217.831 55.810 C 217.832 55.751,218.013 55.658,218.232 55.603 C 218.487 55.539,218.670 55.338,218.742 55.043 C 218.804 54.790,219.047 54.303,219.283 53.959 C 219.845 53.140,219.791 51.082,219.191 50.443 C 218.994 50.233,218.833 49.978,218.833 49.875 C 218.833 49.497,217.891 48.701,216.917 48.256 C 215.819 47.754,208.774 47.400,208.167 47.816 M177.222 50.369 C 176.936 50.670,176.649 51.179,176.584 51.500 C 176.520 51.821,176.287 52.397,176.067 52.780 C 175.847 53.163,175.667 53.583,175.667 53.715 C 175.667 53.846,175.472 54.240,175.235 54.590 C 174.997 54.940,174.762 55.494,174.713 55.822 C 174.664 56.149,174.455 56.604,174.250 56.833 C 173.801 57.335,173.617 58.181,173.833 58.750 L 173.992 59.167 177.484 59.167 C 180.436 59.167,181.017 59.126,181.238 58.905 C 181.563 58.579,181.575 58.231,181.264 58.112 C 181.135 58.062,180.934 57.597,180.817 57.077 C 180.701 56.558,180.511 56.096,180.394 56.052 C 180.278 56.007,180.099 55.696,179.996 55.360 C 179.832 54.826,179.572 54.229,178.568 52.083 C 178.439 51.808,178.201 51.187,178.038 50.703 L 177.743 49.822 177.222 50.369 " stroke="none" fill="#fbfbfb" fill-rule="evenodd"></path><path id="path1" d="M175.340 43.743 C 175.064 44.028,174.714 44.634,174.562 45.089 C 174.411 45.544,174.187 46.033,174.065 46.175 C 173.942 46.317,173.727 46.767,173.587 47.175 C 173.446 47.583,173.259 48.067,173.170 48.250 C 172.616 49.399,171.705 51.515,171.052 53.167 C 170.636 54.221,170.230 55.165,170.150 55.264 C 170.070 55.364,169.889 55.773,169.748 56.173 C 169.607 56.573,169.390 57.016,169.267 57.158 C 169.143 57.300,168.948 57.717,168.833 58.083 C 168.718 58.450,168.529 58.862,168.413 59.000 C 168.297 59.137,168.076 59.625,167.922 60.083 C 167.768 60.542,167.535 61.035,167.404 61.181 C 167.273 61.326,167.053 61.823,166.915 62.286 C 166.778 62.748,166.554 63.219,166.417 63.333 C 166.281 63.446,166.086 63.846,165.985 64.222 C 165.884 64.598,165.667 65.076,165.503 65.284 C 165.339 65.493,165.153 65.938,165.090 66.272 C 165.027 66.607,164.748 67.284,164.470 67.777 C 163.767 69.024,163.915 69.167,165.912 69.167 C 168.043 69.167,168.365 69.028,168.744 67.953 C 169.282 66.428,170.658 63.706,170.948 63.594 C 171.102 63.535,174.074 63.487,177.551 63.488 C 184.729 63.489,184.453 63.439,184.914 64.825 C 185.067 65.286,185.256 65.702,185.334 65.750 C 185.412 65.799,185.566 66.118,185.676 66.461 C 186.455 68.888,186.778 69.167,188.815 69.167 C 190.728 69.167,191.539 68.850,190.927 68.342 C 190.795 68.232,190.484 67.604,190.236 66.946 C 189.988 66.288,189.731 65.675,189.665 65.583 C 189.598 65.492,189.494 65.143,189.434 64.809 C 189.374 64.474,189.184 64.021,189.012 63.803 C 188.840 63.584,188.616 63.098,188.515 62.722 C 188.414 62.346,188.223 61.949,188.091 61.840 C 187.959 61.731,187.724 61.253,187.568 60.779 C 187.412 60.305,187.145 59.738,186.975 59.519 C 186.806 59.301,186.667 59.030,186.667 58.919 C 186.667 58.808,186.488 58.380,186.269 57.969 C 186.051 57.558,185.821 56.992,185.760 56.711 C 185.698 56.431,185.506 56.073,185.333 55.917 C 185.160 55.760,184.967 55.396,184.904 55.108 C 184.805 54.655,184.420 53.743,183.414 51.583 C 182.710 50.073,182.000 48.346,182.000 48.146 C 182.000 47.792,180.050 43.746,179.772 43.524 C 179.668 43.441,178.741 43.340,177.713 43.299 L 175.842 43.225 175.340 43.743 M142.000 43.386 C 141.954 43.433,141.354 43.551,140.667 43.649 C 139.481 43.818,138.967 44.028,136.340 45.420 C 130.855 48.327,128.725 57.206,132.141 62.933 C 132.967 64.319,135.312 66.806,136.268 67.310 C 140.385 69.480,142.731 69.864,147.288 69.116 C 148.043 68.992,148.793 68.775,148.955 68.633 C 149.117 68.491,149.550 68.281,149.917 68.166 C 150.283 68.050,150.706 67.829,150.855 67.673 C 151.004 67.518,151.368 67.291,151.663 67.168 C 152.167 66.959,152.613 66.640,153.351 65.958 C 153.901 65.450,153.751 64.806,152.864 63.866 C 151.802 62.741,151.265 62.528,150.898 63.088 C 150.750 63.315,150.528 63.500,150.406 63.500 C 150.284 63.500,149.981 63.688,149.734 63.917 C 149.487 64.146,149.005 64.409,148.664 64.501 C 148.323 64.593,147.830 64.836,147.568 65.042 C 147.129 65.388,146.890 65.421,144.463 65.473 L 141.834 65.529 140.542 64.896 C 137.752 63.528,135.896 61.683,135.491 59.875 C 135.394 59.445,135.162 58.845,134.974 58.541 C 134.538 57.836,134.481 54.725,134.891 54.098 C 135.026 53.893,135.252 53.337,135.392 52.865 C 135.848 51.329,137.909 48.903,139.333 48.224 C 139.654 48.071,140.104 47.816,140.333 47.657 C 141.029 47.174,143.939 46.791,145.284 47.005 C 147.102 47.294,147.878 47.499,148.070 47.739 C 148.169 47.862,148.520 48.049,148.850 48.153 C 149.181 48.258,149.625 48.528,149.838 48.755 C 150.051 48.981,150.326 49.167,150.450 49.167 C 150.574 49.167,150.746 49.354,150.833 49.583 C 151.035 50.113,151.561 50.127,152.049 49.615 C 154.174 47.391,154.153 46.655,151.927 45.476 C 151.566 45.284,151.167 45.024,151.040 44.897 C 150.913 44.770,150.676 44.667,150.513 44.667 C 150.350 44.667,149.849 44.471,149.400 44.231 C 148.285 43.636,142.411 42.966,142.000 43.386 M203.208 43.523 C 202.911 43.823,202.903 68.670,203.200 68.967 C 203.489 69.256,206.344 69.234,206.746 68.940 C 207.030 68.733,207.053 68.467,207.023 65.732 C 206.975 61.219,206.849 61.357,211.000 61.345 C 214.998 61.333,215.236 61.478,217.097 65.079 C 217.666 66.180,218.348 67.362,218.951 68.292 L 219.518 69.167 221.477 69.167 C 224.049 69.167,224.250 69.043,223.474 67.931 C 223.168 67.491,222.804 66.963,222.667 66.758 C 222.026 65.803,221.407 64.860,221.022 64.250 C 220.790 63.883,220.471 63.433,220.314 63.250 C 218.939 61.645,218.865 60.290,220.126 59.786 C 223.532 58.423,225.142 51.850,223.053 47.838 C 221.902 45.628,219.493 43.977,216.917 43.634 C 214.821 43.355,203.466 43.263,203.208 43.523 M238.178 43.645 C 237.909 44.148,237.930 68.697,238.200 68.967 C 238.723 69.490,252.876 69.147,253.486 68.597 C 253.631 68.466,254.125 68.267,254.583 68.156 C 255.042 68.045,255.567 67.824,255.750 67.665 C 255.933 67.505,256.244 67.293,256.439 67.192 C 258.512 66.125,261.228 62.555,261.656 60.333 C 261.771 59.737,261.951 59.145,262.057 59.016 C 262.434 58.559,262.414 54.779,262.029 53.700 C 261.842 53.178,261.642 52.450,261.584 52.083 C 261.324 50.439,259.216 47.414,257.453 46.153 C 257.014 45.840,256.387 45.379,256.060 45.129 C 255.733 44.880,255.192 44.627,254.857 44.569 C 254.523 44.511,253.987 44.311,253.667 44.125 C 252.368 43.374,238.553 42.945,238.178 43.645 M214.100 46.988 C 214.366 47.074,215.084 47.191,215.697 47.250 C 216.391 47.317,216.937 47.468,217.147 47.650 C 217.333 47.811,217.783 48.077,218.147 48.241 C 218.557 48.426,218.883 48.719,219.004 49.009 C 219.110 49.266,219.378 49.722,219.599 50.021 C 220.514 51.262,219.785 56.000,218.679 56.000 C 218.608 56.000,218.314 56.225,218.026 56.500 C 217.738 56.775,217.332 57.000,217.124 57.000 C 216.916 57.000,216.446 57.169,216.081 57.375 C 215.171 57.889,208.387 57.958,207.629 57.461 C 207.022 57.064,206.962 56.494,207.028 51.686 L 207.083 47.635 207.583 47.235 C 208.126 46.801,212.947 46.619,214.100 46.988 M250.333 47.149 C 251.126 47.263,251.933 47.484,252.167 47.650 C 252.396 47.814,252.864 48.040,253.208 48.153 C 253.551 48.266,253.930 48.498,254.048 48.667 C 254.167 48.837,254.449 49.063,254.674 49.169 C 254.899 49.275,255.308 49.660,255.583 50.025 C 255.858 50.390,256.226 50.846,256.401 51.037 C 256.575 51.228,256.863 51.767,257.040 52.234 C 257.216 52.701,257.486 53.222,257.639 53.392 C 258.109 53.916,258.045 58.736,257.559 59.418 C 257.362 59.694,257.119 60.224,257.019 60.596 C 256.919 60.968,256.649 61.449,256.419 61.665 C 256.188 61.881,256.000 62.144,256.000 62.249 C 256.000 62.648,254.403 63.890,252.750 64.776 L 251.583 65.401 247.193 65.463 C 243.213 65.519,242.774 65.498,242.485 65.237 C 242.179 64.960,242.167 64.603,242.167 56.322 L 242.167 47.696 242.688 47.258 L 243.209 46.819 246.063 46.881 C 247.633 46.916,249.554 47.036,250.333 47.149 M178.183 49.333 C 178.592 50.102,179.145 51.347,179.333 51.923 C 179.452 52.286,179.688 52.845,179.858 53.164 C 180.028 53.484,180.167 53.870,180.167 54.022 C 180.167 54.175,180.384 54.713,180.650 55.219 C 180.916 55.725,181.187 56.388,181.252 56.694 C 181.316 57.000,181.507 57.401,181.676 57.585 C 182.166 58.120,182.269 59.189,181.865 59.555 C 181.391 59.984,173.392 59.916,172.955 59.480 C 172.656 59.180,173.198 57.234,173.832 56.333 C 173.993 56.104,174.180 55.654,174.247 55.333 C 174.315 55.012,174.509 54.487,174.679 54.167 C 174.943 53.668,175.310 52.744,176.369 49.917 C 176.472 49.642,176.631 49.319,176.722 49.200 C 176.942 48.913,178.011 49.011,178.183 49.333 " stroke="none" fill="#19a9b8" fill-rule="evenodd"></path><path id="path2" d="M63.667 28.781 C 63.438 28.827,63.170 28.931,63.072 29.011 C 62.974 29.092,62.374 29.278,61.738 29.425 C 61.103 29.572,60.321 29.830,60.000 29.997 C 59.679 30.164,59.154 30.399,58.833 30.520 C 57.300 31.098,52.343 34.972,52.336 35.599 C 52.334 35.700,52.187 35.914,52.008 36.076 C 51.830 36.237,51.543 36.643,51.371 36.977 C 51.199 37.310,50.934 37.808,50.781 38.083 C 50.144 39.232,49.375 41.134,49.268 41.825 C 49.204 42.233,49.091 42.646,49.017 42.742 C 48.648 43.219,48.594 44.626,48.509 56.000 C 48.417 68.194,48.415 68.253,48.056 68.833 C 47.857 69.154,47.644 69.692,47.581 70.028 C 47.519 70.364,47.288 70.808,47.067 71.015 C 46.847 71.222,46.667 71.474,46.667 71.575 C 46.667 71.794,45.575 73.271,44.800 74.099 C 44.063 74.887,42.464 75.946,41.793 76.089 C 41.494 76.153,41.175 76.261,41.083 76.328 C 40.624 76.668,39.582 76.890,37.999 76.985 C 35.050 77.162,33.879 78.262,33.943 80.797 C 33.977 82.157,34.928 83.561,36.121 84.014 C 37.054 84.369,40.592 84.087,41.401 83.594 C 41.593 83.477,42.200 83.286,42.750 83.170 C 43.300 83.053,43.929 82.817,44.147 82.646 C 44.366 82.474,44.669 82.333,44.820 82.333 C 45.145 82.333,46.497 81.498,47.978 80.383 C 48.562 79.943,49.182 79.480,49.355 79.353 C 49.933 78.932,51.833 77.005,51.833 76.841 C 51.833 76.751,52.048 76.432,52.311 76.131 C 52.573 75.830,52.845 75.396,52.913 75.167 C 52.982 74.938,53.174 74.600,53.340 74.417 C 53.506 74.233,53.693 73.858,53.754 73.583 C 53.816 73.308,54.038 72.558,54.247 71.917 C 55.278 68.755,55.333 67.948,55.337 55.888 C 55.340 49.880,55.409 45.271,55.503 44.833 C 55.778 43.556,56.059 42.773,56.454 42.185 C 56.663 41.874,56.833 41.534,56.833 41.429 C 56.833 40.633,60.703 37.144,62.236 36.558 C 62.519 36.450,63.087 36.229,63.500 36.067 C 67.349 34.554,74.325 36.934,76.100 40.365 C 76.233 40.622,76.407 40.833,76.486 40.833 C 76.566 40.833,76.757 41.152,76.912 41.542 C 77.067 41.931,77.329 42.400,77.496 42.583 C 77.662 42.767,77.849 43.254,77.911 43.667 C 77.973 44.079,78.169 44.848,78.345 45.376 C 78.648 46.280,78.667 46.903,78.668 56.292 C 78.669 67.206,78.656 67.063,79.690 68.172 L 80.385 68.917 81.931 68.917 L 83.477 68.917 84.221 68.140 C 85.331 66.983,85.333 66.953,85.333 56.418 C 85.333 45.901,85.206 43.662,84.485 41.455 C 84.218 40.638,84.000 39.873,84.000 39.755 C 84.000 39.637,83.892 39.451,83.759 39.341 C 83.627 39.231,83.399 38.781,83.252 38.340 C 83.106 37.900,82.839 37.406,82.660 37.244 C 82.480 37.081,82.333 36.835,82.333 36.696 C 82.333 36.378,78.677 32.767,78.002 32.417 C 77.726 32.275,77.500 32.091,77.500 32.008 C 77.500 31.925,77.087 31.669,76.583 31.438 C 76.079 31.207,75.667 30.951,75.667 30.869 C 75.667 30.787,75.348 30.620,74.958 30.497 C 74.569 30.374,74.132 30.175,73.988 30.054 C 73.843 29.933,73.206 29.717,72.571 29.574 C 71.936 29.431,71.192 29.190,70.917 29.038 C 70.417 28.763,64.753 28.562,63.667 28.781 M108.250 28.781 C 108.067 28.830,107.823 28.945,107.708 29.038 C 107.594 29.131,107.005 29.311,106.399 29.438 C 105.794 29.565,105.100 29.807,104.858 29.977 C 104.615 30.146,104.225 30.331,103.990 30.388 C 103.755 30.444,103.305 30.679,102.990 30.910 C 102.675 31.140,102.210 31.412,101.958 31.514 C 101.706 31.616,101.500 31.755,101.500 31.823 C 101.500 31.891,101.331 32.024,101.125 32.118 C 100.467 32.418,99.099 33.608,97.481 35.287 C 97.099 35.683,97.081 35.713,96.003 37.750 C 95.615 38.483,95.239 39.158,95.168 39.250 C 95.097 39.342,94.983 39.679,94.915 40.000 C 94.848 40.321,94.625 40.921,94.420 41.333 C 93.775 42.633,93.667 44.709,93.667 55.813 C 93.667 64.319,93.625 66.253,93.426 66.915 C 93.293 67.355,93.134 68.136,93.073 68.650 C 93.010 69.173,92.830 69.730,92.663 69.917 C 92.499 70.100,92.245 70.512,92.098 70.833 C 91.127 72.953,88.236 75.746,86.667 76.081 C 86.346 76.149,86.000 76.272,85.899 76.353 C 85.105 76.990,80.692 77.259,79.151 76.764 C 77.305 76.171,76.181 75.697,75.574 75.255 C 74.315 74.340,72.330 72.169,71.908 71.246 C 71.683 70.754,71.428 70.309,71.342 70.255 C 71.255 70.202,70.974 69.504,70.718 68.704 L 70.252 67.250 70.168 56.500 C 70.083 45.779,70.030 44.833,69.510 44.833 C 69.419 44.833,69.067 44.590,68.727 44.292 C 67.725 43.414,66.047 43.492,64.885 44.472 C 63.485 45.653,63.583 44.669,63.583 57.484 L 63.583 68.917 64.210 70.750 C 64.555 71.758,64.943 72.774,65.074 73.007 C 65.204 73.240,65.414 73.727,65.540 74.090 C 66.321 76.345,69.753 79.921,72.523 81.365 C 72.877 81.549,73.167 81.762,73.167 81.837 C 73.167 81.912,73.536 82.096,73.987 82.246 C 74.438 82.396,74.891 82.619,74.993 82.741 C 75.095 82.864,75.682 83.056,76.297 83.168 C 76.913 83.280,77.567 83.463,77.750 83.575 C 78.949 84.308,83.601 84.422,85.555 83.766 C 86.212 83.545,87.162 83.274,87.667 83.162 C 88.171 83.051,88.808 82.828,89.083 82.667 C 89.358 82.506,89.865 82.284,90.208 82.174 C 90.552 82.064,90.833 81.906,90.833 81.823 C 90.833 81.740,91.190 81.481,91.625 81.246 C 92.662 80.688,93.498 80.077,93.787 79.665 C 93.914 79.483,94.093 79.333,94.184 79.333 C 94.275 79.333,94.852 78.814,95.466 78.179 C 97.122 76.469,97.500 76.019,97.500 75.760 C 97.500 75.631,97.688 75.303,97.917 75.030 C 98.146 74.758,98.335 74.471,98.337 74.393 C 98.339 74.314,98.562 73.800,98.833 73.250 C 99.104 72.700,99.328 72.137,99.330 71.998 C 99.332 71.859,99.536 71.147,99.784 70.415 L 100.235 69.083 100.334 56.917 C 100.400 48.798,100.493 44.584,100.615 44.250 C 101.293 42.382,101.599 41.688,101.942 41.234 C 102.157 40.951,102.333 40.649,102.333 40.564 C 102.333 39.961,105.608 37.164,106.811 36.741 C 107.236 36.591,107.771 36.370,108.000 36.250 C 108.595 35.938,110.214 35.667,111.489 35.666 C 112.330 35.666,112.718 35.580,113.167 35.297 C 113.487 35.095,113.891 34.851,114.064 34.756 C 115.399 34.021,115.209 30.571,113.764 29.317 L 113.112 28.750 110.848 28.722 C 109.602 28.706,108.433 28.733,108.250 28.781 M275.541 43.672 L 275.165 43.823 275.207 56.370 L 275.250 68.917 277.799 68.963 C 281.257 69.025,280.874 69.893,280.844 62.067 C 280.818 55.170,280.874 54.502,281.507 54.163 C 282.062 53.866,282.146 53.941,283.667 56.106 C 283.804 56.301,284.254 56.893,284.667 57.420 C 285.474 58.452,285.715 58.789,286.282 59.678 C 286.483 59.992,286.737 60.352,286.847 60.477 C 287.282 60.968,288.144 62.146,288.344 62.521 C 288.460 62.739,288.749 63.111,288.986 63.350 C 289.223 63.588,289.604 64.019,289.833 64.307 C 290.063 64.596,290.450 65.053,290.694 65.324 C 290.939 65.595,291.188 65.970,291.247 66.158 C 291.307 66.346,291.420 66.500,291.498 66.500 C 291.576 66.500,291.810 66.781,292.019 67.125 C 292.228 67.469,292.622 68.031,292.894 68.375 L 293.389 69.000 295.903 68.997 C 297.285 68.996,298.513 68.934,298.630 68.859 C 299.017 68.614,298.936 43.989,298.547 43.698 C 298.101 43.365,293.551 43.483,293.330 43.833 C 293.237 43.980,293.171 47.005,293.169 51.183 C 293.166 60.135,293.205 60.051,290.583 56.729 C 290.308 56.381,289.953 55.905,289.794 55.673 C 289.261 54.893,288.755 54.206,287.958 53.181 C 287.523 52.621,287.167 52.097,287.167 52.016 C 287.167 51.865,286.841 51.434,285.043 49.206 C 284.471 48.497,283.852 47.729,283.668 47.500 C 283.484 47.271,283.121 46.821,282.861 46.500 C 282.601 46.179,282.248 45.673,282.075 45.375 C 281.903 45.077,281.712 44.833,281.651 44.833 C 281.590 44.833,281.453 44.622,281.346 44.364 C 281.226 44.075,280.942 43.819,280.606 43.697 C 279.966 43.466,276.101 43.447,275.541 43.672 M313.372 43.639 C 313.153 43.778,313.040 68.493,313.257 68.844 C 313.363 69.016,332.960 69.069,333.403 68.899 C 333.756 68.763,333.797 64.982,333.448 64.693 C 333.300 64.570,331.053 64.496,326.539 64.464 C 318.695 64.409,319.437 64.649,319.360 62.141 C 319.242 58.314,318.914 58.494,326.006 58.507 C 328.989 58.512,331.554 58.469,331.706 58.410 C 332.170 58.232,332.356 54.801,331.925 54.369 C 331.860 54.304,329.206 54.212,326.028 54.167 C 320.013 54.080,319.740 54.047,319.487 53.383 C 319.177 52.566,319.298 49.081,319.652 48.643 L 319.970 48.250 326.277 48.208 C 329.745 48.185,332.754 48.127,332.963 48.079 C 333.584 47.936,333.464 43.824,332.833 43.649 C 332.245 43.485,313.629 43.476,313.372 43.639 M344.413 43.875 C 344.362 44.081,344.342 45.112,344.368 46.167 L 344.417 48.083 348.083 48.181 C 350.100 48.235,351.767 48.291,351.787 48.306 C 352.299 48.677,352.333 49.346,352.333 59.057 C 352.333 67.785,352.361 68.808,352.597 68.899 C 352.979 69.046,358.166 69.023,358.171 68.875 C 358.173 68.806,358.192 64.271,358.212 58.798 C 358.248 49.499,358.270 48.826,358.547 48.548 C 358.810 48.285,359.238 48.245,362.214 48.205 C 366.789 48.145,366.319 48.408,366.216 45.959 C 366.148 44.372,366.070 43.870,365.866 43.708 C 365.662 43.547,363.242 43.500,355.055 43.500 L 344.506 43.500 344.413 43.875 " stroke="none" fill="#e44f58" fill-rule="evenodd"></path><path id="path3" d="M63.436 28.337 C 62.714 28.420,62.001 28.594,61.853 28.723 C 61.705 28.852,61.171 29.051,60.667 29.166 C 60.163 29.280,59.487 29.512,59.167 29.680 C 58.846 29.848,58.321 30.103,58.000 30.247 C 56.412 30.956,53.733 33.013,52.500 34.470 C 51.374 35.800,51.000 36.297,51.000 36.461 C 51.000 36.552,50.888 36.718,50.752 36.832 C 50.477 37.060,49.343 39.329,48.917 40.500 C 48.060 42.860,48.107 42.144,47.995 54.667 C 47.879 67.662,47.767 69.069,46.739 70.416 C 46.516 70.709,46.333 71.029,46.333 71.127 C 46.333 72.132,42.686 75.213,40.941 75.682 C 40.561 75.785,40.052 75.971,39.809 76.096 C 39.567 76.221,38.526 76.403,37.496 76.500 C 34.811 76.754,33.511 77.798,33.155 79.989 C 32.952 81.233,33.728 83.500,34.356 83.500 C 34.428 83.500,34.678 83.706,34.912 83.958 L 35.338 84.417 38.377 84.416 C 41.201 84.415,41.458 84.390,42.000 84.055 C 42.321 83.857,42.883 83.641,43.250 83.575 C 45.753 83.126,50.446 79.717,52.512 76.847 C 53.404 75.609,55.000 72.558,55.000 72.092 C 55.000 71.982,55.201 71.260,55.447 70.488 L 55.895 69.083 56.001 57.000 C 56.081 47.859,56.159 44.754,56.322 44.250 C 58.602 37.154,66.485 34.091,72.698 37.887 C 73.426 38.332,75.660 40.351,75.664 40.568 C 75.665 40.651,75.838 40.951,76.047 41.234 C 76.582 41.958,77.454 43.805,77.590 44.500 C 77.653 44.821,77.754 49.921,77.815 55.833 L 77.926 66.583 78.312 67.316 C 79.916 70.361,84.230 70.274,85.723 67.167 C 86.081 66.422,86.083 66.338,86.083 55.833 C 86.083 44.184,85.980 42.846,84.905 40.574 C 84.682 40.103,84.500 39.627,84.500 39.517 C 84.500 39.406,84.313 39.040,84.083 38.702 C 83.854 38.365,83.667 38.003,83.667 37.897 C 83.667 37.698,82.658 36.146,82.184 35.618 C 82.037 35.453,81.467 34.813,80.917 34.196 C 80.367 33.578,79.579 32.817,79.167 32.504 C 78.754 32.192,78.229 31.770,78.000 31.566 C 77.388 31.024,74.037 29.351,73.167 29.154 C 72.754 29.061,72.104 28.834,71.723 28.651 C 70.910 28.260,65.791 28.067,63.436 28.337 M108.115 28.342 C 107.491 28.415,106.816 28.580,106.615 28.710 C 106.414 28.839,105.875 29.037,105.417 29.150 C 104.958 29.263,104.409 29.468,104.197 29.606 C 103.984 29.744,103.532 29.954,103.193 30.074 C 102.364 30.366,100.317 31.720,99.397 32.583 C 99.202 32.767,98.901 33.035,98.729 33.179 C 98.404 33.452,96.984 35.047,96.292 35.917 C 95.365 37.080,93.856 40.375,93.506 42.000 C 93.417 42.412,93.232 43.275,93.095 43.917 C 92.889 44.882,92.844 46.951,92.838 55.917 C 92.831 67.006,92.771 68.210,92.169 69.456 C 91.984 69.838,91.833 70.255,91.833 70.383 C 91.833 70.511,91.675 70.758,91.482 70.933 C 91.289 71.107,90.991 71.512,90.819 71.833 C 90.372 72.667,89.546 73.531,88.583 74.171 C 88.125 74.476,87.541 74.866,87.287 75.038 C 86.204 75.769,83.577 76.487,82.000 76.483 C 80.352 76.479,77.424 75.726,76.676 75.114 C 76.533 74.998,76.222 74.806,75.985 74.687 C 74.985 74.189,72.693 71.655,72.358 70.677 C 72.251 70.363,72.051 69.982,71.914 69.831 C 71.129 68.963,71.000 67.054,71.000 56.317 L 71.000 46.194 70.575 45.347 C 70.341 44.881,70.095 44.500,70.028 44.500 C 69.962 44.500,69.671 44.284,69.381 44.019 C 67.723 42.505,63.898 43.384,63.303 45.417 C 63.196 45.783,63.028 46.189,62.929 46.317 C 62.670 46.655,62.585 65.239,62.836 66.584 C 62.938 67.134,63.083 68.191,63.157 68.933 C 63.284 70.212,63.503 71.170,63.840 71.917 C 63.923 72.100,64.135 72.625,64.311 73.083 C 64.682 74.052,65.410 75.454,65.735 75.826 C 65.859 75.967,66.076 76.312,66.217 76.593 C 66.545 77.240,69.444 80.180,70.355 80.789 C 70.734 81.043,71.353 81.456,71.731 81.708 C 72.108 81.960,72.679 82.279,73.000 82.418 C 73.321 82.556,73.921 82.847,74.333 83.064 C 74.746 83.281,75.371 83.510,75.723 83.573 C 76.075 83.636,76.675 83.850,77.056 84.049 C 78.350 84.724,86.352 84.642,87.141 83.946 C 87.293 83.812,87.754 83.648,88.167 83.582 C 88.579 83.515,89.223 83.282,89.598 83.064 C 89.973 82.845,90.394 82.667,90.533 82.667 C 90.673 82.667,91.071 82.442,91.417 82.167 C 91.763 81.892,92.145 81.667,92.267 81.667 C 92.550 81.667,95.387 79.292,95.813 78.699 C 95.990 78.452,96.450 77.912,96.836 77.500 C 97.608 76.673,98.833 74.878,98.833 74.573 C 98.833 74.466,98.978 74.195,99.154 73.971 C 99.601 73.402,100.112 71.928,100.674 69.583 L 101.154 67.583 101.160 56.460 C 101.167 44.048,101.172 43.990,102.382 41.833 C 103.022 40.692,104.130 39.167,104.319 39.167 C 104.397 39.167,104.676 38.952,104.939 38.690 C 105.475 38.155,107.479 37.000,107.870 37.000 C 108.010 37.000,108.454 36.854,108.856 36.676 C 109.318 36.472,110.281 36.293,111.468 36.191 C 113.150 36.047,113.394 35.984,113.775 35.604 C 114.009 35.370,114.324 35.136,114.475 35.084 C 115.336 34.789,116.035 32.535,115.678 31.207 C 114.960 28.541,112.952 27.780,108.115 28.342 M70.917 29.038 C 71.192 29.190,71.936 29.431,72.571 29.574 C 73.206 29.717,73.843 29.933,73.988 30.054 C 74.132 30.175,74.569 30.374,74.958 30.497 C 75.348 30.620,75.667 30.787,75.667 30.869 C 75.667 30.951,76.079 31.207,76.583 31.438 C 77.087 31.669,77.500 31.925,77.500 32.008 C 77.500 32.091,77.726 32.275,78.002 32.417 C 78.677 32.767,82.333 36.378,82.333 36.696 C 82.333 36.835,82.480 37.081,82.660 37.244 C 82.839 37.406,83.106 37.900,83.252 38.340 C 83.399 38.781,83.627 39.231,83.759 39.341 C 83.892 39.451,84.000 39.637,84.000 39.755 C 84.000 39.873,84.218 40.638,84.485 41.455 C 85.206 43.662,85.333 45.901,85.333 56.418 C 85.333 66.953,85.331 66.983,84.221 68.140 L 83.477 68.917 81.931 68.917 L 80.385 68.917 79.690 68.172 C 78.656 67.063,78.669 67.206,78.668 56.292 C 78.667 46.903,78.648 46.280,78.345 45.376 C 78.169 44.848,77.973 44.079,77.911 43.667 C 77.849 43.254,77.662 42.767,77.496 42.583 C 77.329 42.400,77.067 41.931,76.912 41.542 C 76.757 41.152,76.566 40.833,76.486 40.833 C 76.407 40.833,76.233 40.622,76.100 40.365 C 75.297 38.812,72.850 36.983,70.583 36.241 C 68.706 35.626,64.861 35.532,63.500 36.067 C 63.087 36.229,62.519 36.450,62.236 36.558 C 60.703 37.144,56.833 40.633,56.833 41.429 C 56.833 41.534,56.663 41.874,56.454 42.185 C 56.059 42.773,55.778 43.556,55.503 44.833 C 55.409 45.271,55.340 49.880,55.337 55.888 C 55.333 67.948,55.278 68.755,54.247 71.917 C 54.038 72.558,53.816 73.308,53.754 73.583 C 53.693 73.858,53.506 74.233,53.340 74.417 C 53.174 74.600,52.982 74.938,52.913 75.167 C 52.845 75.396,52.573 75.830,52.311 76.131 C 52.048 76.432,51.833 76.751,51.833 76.841 C 51.833 77.005,49.933 78.932,49.355 79.353 C 49.182 79.480,48.562 79.943,47.978 80.383 C 46.497 81.498,45.145 82.333,44.820 82.333 C 44.669 82.333,44.366 82.474,44.147 82.646 C 43.929 82.817,43.300 83.053,42.750 83.170 C 42.200 83.286,41.593 83.477,41.401 83.594 C 40.592 84.087,37.054 84.369,36.121 84.014 C 34.928 83.561,33.977 82.157,33.943 80.797 C 33.879 78.262,35.050 77.162,37.999 76.985 C 39.582 76.890,40.624 76.668,41.083 76.328 C 41.175 76.261,41.494 76.153,41.793 76.089 C 42.464 75.946,44.063 74.887,44.800 74.099 C 45.575 73.271,46.667 71.794,46.667 71.575 C 46.667 71.474,46.847 71.222,47.067 71.015 C 47.288 70.808,47.519 70.364,47.581 70.028 C 47.644 69.692,47.857 69.154,48.056 68.833 C 48.415 68.253,48.417 68.194,48.509 56.000 C 48.594 44.626,48.648 43.219,49.017 42.742 C 49.091 42.646,49.204 42.233,49.268 41.825 C 49.375 41.134,50.144 39.232,50.781 38.083 C 50.934 37.808,51.199 37.310,51.371 36.977 C 51.543 36.643,51.830 36.237,52.008 36.076 C 52.187 35.914,52.334 35.700,52.336 35.599 C 52.343 34.972,57.300 31.098,58.833 30.520 C 59.154 30.399,59.679 30.164,60.000 29.997 C 60.321 29.830,61.103 29.572,61.738 29.425 C 62.374 29.278,62.974 29.092,63.072 29.011 C 63.606 28.573,70.112 28.596,70.917 29.038 M113.764 29.317 C 115.209 30.571,115.399 34.021,114.064 34.756 C 113.891 34.851,113.487 35.095,113.167 35.297 C 112.718 35.580,112.330 35.666,111.489 35.666 C 110.214 35.667,108.595 35.938,108.000 36.250 C 107.771 36.370,107.236 36.591,106.811 36.741 C 105.608 37.164,102.333 39.961,102.333 40.564 C 102.333 40.649,102.157 40.951,101.942 41.234 C 101.599 41.688,101.293 42.382,100.615 44.250 C 100.493 44.584,100.400 48.798,100.334 56.917 L 100.235 69.083 99.784 70.415 C 99.536 71.147,99.332 71.859,99.330 71.998 C 99.328 72.137,99.104 72.700,98.833 73.250 C 98.562 73.800,98.339 74.314,98.337 74.393 C 98.335 74.471,98.146 74.758,97.917 75.030 C 97.688 75.303,97.500 75.631,97.500 75.760 C 97.500 76.019,97.122 76.469,95.466 78.179 C 94.852 78.814,94.275 79.333,94.184 79.333 C 94.093 79.333,93.914 79.483,93.787 79.665 C 93.498 80.077,92.662 80.688,91.625 81.246 C 91.190 81.481,90.833 81.740,90.833 81.823 C 90.833 81.906,90.552 82.064,90.208 82.174 C 89.865 82.284,89.358 82.506,89.083 82.667 C 88.808 82.828,88.171 83.051,87.667 83.162 C 87.162 83.274,86.212 83.545,85.555 83.766 C 83.601 84.422,78.949 84.308,77.750 83.575 C 77.567 83.463,76.913 83.280,76.297 83.168 C 75.682 83.056,75.095 82.864,74.993 82.741 C 74.891 82.619,74.438 82.396,73.987 82.246 C 73.536 82.096,73.167 81.912,73.167 81.837 C 73.167 81.762,72.877 81.549,72.523 81.365 C 69.753 79.921,66.321 76.345,65.540 74.090 C 65.414 73.727,65.204 73.240,65.074 73.007 C 64.943 72.774,64.555 71.758,64.210 70.750 L 63.583 68.917 63.583 57.484 C 63.583 44.669,63.485 45.653,64.885 44.472 C 66.047 43.492,67.725 43.414,68.727 44.292 C 69.067 44.590,69.419 44.833,69.510 44.833 C 70.030 44.833,70.083 45.779,70.168 56.500 L 70.252 67.250 70.718 68.704 C 70.974 69.504,71.255 70.202,71.342 70.255 C 71.428 70.309,71.683 70.754,71.908 71.246 C 72.330 72.169,74.315 74.340,75.574 75.255 C 76.181 75.697,77.305 76.171,79.151 76.764 C 80.692 77.259,85.105 76.990,85.899 76.353 C 86.000 76.272,86.346 76.149,86.667 76.081 C 88.236 75.746,91.127 72.953,92.098 70.833 C 92.245 70.512,92.499 70.100,92.663 69.917 C 92.830 69.730,93.010 69.173,93.073 68.650 C 93.134 68.136,93.293 67.355,93.426 66.915 C 93.625 66.253,93.667 64.319,93.667 55.813 C 93.667 44.709,93.775 42.633,94.420 41.333 C 94.625 40.921,94.848 40.321,94.915 40.000 C 94.983 39.679,95.097 39.342,95.168 39.250 C 95.239 39.158,95.615 38.483,96.003 37.750 C 97.081 35.713,97.099 35.683,97.481 35.287 C 99.099 33.608,100.467 32.418,101.125 32.118 C 101.331 32.024,101.500 31.891,101.500 31.823 C 101.500 31.755,101.706 31.616,101.958 31.514 C 102.210 31.412,102.675 31.140,102.990 30.910 C 103.305 30.679,103.755 30.444,103.990 30.388 C 104.225 30.331,104.615 30.146,104.858 29.977 C 105.100 29.807,105.794 29.565,106.399 29.438 C 107.005 29.311,107.594 29.131,107.708 29.038 C 108.077 28.739,108.539 28.693,110.848 28.722 L 113.112 28.750 113.764 29.317 M275.386 42.834 C 274.666 43.124,274.667 43.121,274.667 56.316 L 274.667 68.987 275.042 69.337 C 275.590 69.848,280.882 69.783,281.264 69.260 C 281.458 68.994,281.500 67.790,281.500 62.493 C 281.500 55.042,281.620 54.192,282.478 55.542 C 282.982 56.333,283.306 56.781,284.331 58.098 C 284.836 58.747,285.400 59.487,285.583 59.741 C 285.767 59.995,286.198 60.550,286.542 60.974 C 286.885 61.397,287.167 61.795,287.167 61.857 C 287.167 61.919,287.619 62.520,288.173 63.193 C 289.342 64.615,289.469 64.782,290.297 65.983 C 290.638 66.478,291.075 67.052,291.268 67.259 C 291.462 67.466,291.788 67.906,291.992 68.238 C 292.828 69.589,293.144 69.697,296.122 69.637 C 298.312 69.592,298.844 69.533,299.216 69.288 L 299.667 68.992 299.667 56.405 C 299.667 41.990,299.762 42.932,298.288 42.747 C 296.571 42.533,293.378 42.716,293.047 43.047 C 292.773 43.322,292.746 43.886,292.703 50.295 C 292.677 54.117,292.589 57.311,292.506 57.394 C 292.298 57.602,291.627 57.038,290.877 56.024 C 290.532 55.558,289.725 54.462,289.083 53.589 C 288.442 52.716,287.872 52.001,287.818 52.001 C 287.764 52.000,287.627 51.796,287.514 51.548 C 287.401 51.299,287.159 50.943,286.978 50.756 C 286.797 50.569,286.173 49.779,285.591 49.000 C 285.010 48.221,284.376 47.412,284.184 47.202 C 283.991 46.993,283.829 46.768,283.825 46.702 C 283.803 46.403,281.335 43.376,280.840 43.042 C 280.244 42.640,276.246 42.488,275.386 42.834 M312.845 43.106 C 312.503 43.541,312.500 43.649,312.500 56.243 L 312.500 68.942 312.890 69.308 L 313.280 69.674 323.460 69.629 L 333.640 69.583 334.070 69.179 C 334.487 68.788,334.500 68.712,334.500 66.747 C 334.500 63.825,335.211 64.094,327.324 64.036 L 320.849 63.989 320.533 63.587 C 319.980 62.885,319.902 60.249,320.419 59.733 L 320.818 59.333 326.201 59.331 C 333.249 59.328,332.833 59.515,332.833 56.355 C 332.833 53.171,333.198 53.333,326.032 53.333 C 319.601 53.333,319.974 53.474,320.115 51.107 C 320.166 50.241,320.307 49.422,320.440 49.208 L 320.674 48.833 326.646 48.833 C 332.728 48.833,333.523 48.762,333.755 48.197 C 333.882 47.886,333.861 43.599,333.730 43.259 C 333.516 42.701,332.890 42.667,323.004 42.667 L 313.191 42.667 312.845 43.106 M344.292 42.847 C 343.718 43.181,343.571 43.840,343.592 45.986 L 343.613 48.055 344.098 48.443 C 344.568 48.819,344.684 48.832,347.760 48.833 C 352.114 48.834,351.575 47.413,351.624 59.028 C 351.647 64.375,351.666 68.807,351.666 68.877 C 351.670 69.581,357.091 70.074,358.219 69.473 C 359.006 69.054,358.989 69.283,358.995 59.162 C 358.999 50.903,359.035 49.525,359.251 49.216 C 359.490 48.874,359.646 48.856,362.800 48.804 C 365.618 48.758,366.165 48.707,366.550 48.454 L 367.000 48.159 367.000 45.988 C 367.000 43.476,366.831 42.941,365.986 42.772 C 365.070 42.589,344.614 42.659,344.292 42.847 M280.606 43.697 C 280.942 43.819,281.226 44.075,281.346 44.364 C 281.453 44.622,281.590 44.833,281.651 44.833 C 281.712 44.833,281.903 45.077,282.075 45.375 C 282.248 45.673,282.601 46.179,282.861 46.500 C 283.121 46.821,283.484 47.271,283.668 47.500 C 283.852 47.729,284.471 48.497,285.043 49.206 C 286.841 51.434,287.167 51.865,287.167 52.016 C 287.167 52.097,287.523 52.621,287.958 53.181 C 288.755 54.206,289.261 54.893,289.794 55.673 C 289.953 55.905,290.308 56.381,290.583 56.729 C 293.205 60.051,293.166 60.135,293.169 51.183 C 293.171 47.005,293.237 43.980,293.330 43.833 C 293.551 43.483,298.101 43.365,298.547 43.698 C 298.936 43.989,299.017 68.614,298.630 68.859 C 298.513 68.934,297.285 68.996,295.903 68.997 L 293.389 69.000 292.894 68.375 C 292.622 68.031,292.228 67.469,292.019 67.125 C 291.810 66.781,291.576 66.500,291.498 66.500 C 291.420 66.500,291.307 66.346,291.247 66.158 C 291.188 65.970,290.939 65.595,290.694 65.324 C 290.450 65.053,290.063 64.596,289.833 64.307 C 289.604 64.019,289.223 63.588,288.986 63.350 C 288.749 63.111,288.460 62.739,288.344 62.521 C 288.144 62.146,287.282 60.968,286.847 60.477 C 286.737 60.352,286.483 59.992,286.282 59.678 C 285.715 58.789,285.474 58.452,284.667 57.420 C 284.254 56.893,283.804 56.301,283.667 56.106 C 282.146 53.941,282.062 53.866,281.507 54.163 C 280.874 54.502,280.818 55.170,280.844 62.067 C 280.874 69.893,281.257 69.025,277.799 68.963 L 275.250 68.917 275.207 56.370 L 275.165 43.823 275.541 43.672 C 276.101 43.447,279.966 43.466,280.606 43.697 M332.833 43.649 C 333.464 43.824,333.584 47.936,332.963 48.079 C 332.754 48.127,329.745 48.185,326.277 48.208 L 319.970 48.250 319.652 48.643 C 319.298 49.081,319.177 52.566,319.487 53.383 C 319.740 54.047,320.013 54.080,326.028 54.167 C 329.206 54.212,331.860 54.304,331.925 54.369 C 332.356 54.801,332.170 58.232,331.706 58.410 C 331.554 58.469,328.989 58.512,326.006 58.507 C 318.914 58.494,319.242 58.314,319.360 62.141 C 319.437 64.649,318.695 64.409,326.539 64.464 C 331.053 64.496,333.300 64.570,333.448 64.693 C 333.797 64.982,333.756 68.763,333.403 68.899 C 332.960 69.069,313.363 69.016,313.257 68.844 C 313.040 68.493,313.153 43.778,313.372 43.639 C 313.629 43.476,332.245 43.485,332.833 43.649 M365.866 43.708 C 366.070 43.870,366.148 44.372,366.216 45.959 C 366.319 48.408,366.789 48.145,362.214 48.205 C 359.238 48.245,358.810 48.285,358.547 48.548 C 358.270 48.826,358.248 49.499,358.212 58.798 C 358.192 64.271,358.173 68.806,358.171 68.875 C 358.166 69.023,352.979 69.046,352.597 68.899 C 352.361 68.808,352.333 67.785,352.333 59.057 C 352.333 49.346,352.299 48.677,351.787 48.306 C 351.767 48.291,350.100 48.235,348.083 48.181 L 344.417 48.083 344.368 46.167 C 344.342 45.112,344.362 44.081,344.413 43.875 L 344.506 43.500 355.055 43.500 C 363.242 43.500,365.662 43.547,365.866 43.708 " stroke="none" fill="#ec989c" fill-rule="evenodd"></path><path id="path4" d="M62.274 28.329 C 61.921 28.397,61.569 28.555,61.492 28.680 C 61.275 29.031,61.463 29.085,61.810 28.771 C 62.010 28.590,62.596 28.438,63.436 28.350 C 64.588 28.228,64.637 28.211,63.833 28.208 C 63.329 28.206,62.628 28.261,62.274 28.329 M69.628 28.287 C 69.928 28.325,70.378 28.324,70.628 28.286 C 70.878 28.248,70.633 28.217,70.083 28.218 C 69.533 28.219,69.328 28.250,69.628 28.287 M108.044 28.286 C 108.297 28.325,108.672 28.324,108.877 28.284 C 109.082 28.244,108.875 28.213,108.417 28.214 C 107.958 28.216,107.791 28.248,108.044 28.286 M113.028 28.310 C 114.203 28.566,115.353 29.902,115.759 31.485 L 115.997 32.417 115.899 31.586 C 115.708 29.965,114.369 28.349,113.128 28.240 C 112.419 28.178,112.419 28.178,113.028 28.310 M71.750 28.667 C 72.567 29.083,72.695 29.082,72.190 28.661 C 71.973 28.481,71.639 28.333,71.446 28.333 C 71.192 28.333,71.275 28.424,71.750 28.667 M106.310 28.661 C 106.094 28.841,106.006 28.991,106.115 28.994 C 106.224 28.998,106.359 28.926,106.415 28.836 C 106.471 28.746,106.756 28.603,107.050 28.518 C 107.556 28.371,107.561 28.363,107.143 28.348 C 106.902 28.340,106.527 28.481,106.310 28.661 M59.417 29.308 C 59.233 29.368,58.896 29.540,58.667 29.690 C 58.438 29.840,57.969 30.052,57.625 30.161 C 57.281 30.270,57.000 30.426,57.000 30.509 C 57.000 30.591,56.756 30.783,56.458 30.936 C 54.780 31.799,50.833 35.652,50.833 36.428 C 50.833 36.559,50.754 36.667,50.657 36.667 C 50.560 36.667,50.336 36.994,50.159 37.395 C 49.982 37.795,49.724 38.217,49.585 38.332 C 49.447 38.447,49.332 38.625,49.329 38.729 C 49.327 38.832,49.134 39.367,48.901 39.917 C 48.392 41.114,48.009 42.562,48.020 43.250 C 48.024 43.535,48.133 43.254,48.275 42.595 C 48.411 41.960,48.630 41.233,48.761 40.979 C 48.893 40.724,49.000 40.433,49.000 40.330 C 49.000 40.018,50.482 37.055,50.750 36.834 C 50.887 36.719,51.000 36.552,51.000 36.461 C 51.000 36.297,51.374 35.800,52.500 34.470 C 53.735 33.010,56.421 30.949,58.000 30.248 C 58.321 30.106,58.797 29.871,59.057 29.726 C 59.318 29.581,59.730 29.403,59.974 29.329 C 60.292 29.233,60.323 29.196,60.083 29.198 C 59.900 29.199,59.600 29.249,59.417 29.308 M75.583 30.167 C 76.683 30.731,77.771 31.360,78.000 31.564 C 78.229 31.769,78.754 32.192,79.167 32.504 C 79.846 33.019,81.070 34.294,82.353 35.822 C 82.617 36.136,82.833 36.341,82.833 36.278 C 82.833 36.214,82.513 35.769,82.122 35.289 C 80.547 33.356,79.838 32.643,78.786 31.929 C 78.439 31.694,78.064 31.423,77.952 31.327 C 77.495 30.932,75.912 30.000,75.698 30.000 C 75.572 30.000,75.264 29.855,75.016 29.678 C 74.767 29.501,74.343 29.307,74.073 29.248 C 73.804 29.189,74.483 29.602,75.583 30.167 M103.140 29.887 C 101.098 31.002,100.788 31.189,100.083 31.734 C 99.364 32.291,99.173 32.499,99.169 32.734 C 99.168 32.817,99.298 32.741,99.458 32.565 C 99.980 31.995,102.605 30.176,102.917 30.169 C 103.008 30.167,103.533 29.941,104.083 29.667 C 104.633 29.392,104.933 29.173,104.750 29.179 C 104.567 29.185,103.842 29.504,103.140 29.887 M98.036 33.625 C 97.655 34.060,97.153 34.607,96.921 34.840 C 96.690 35.072,96.500 35.327,96.500 35.407 C 96.500 35.486,96.744 35.291,97.042 34.973 C 98.701 33.200,99.016 32.833,98.880 32.833 C 98.797 32.833,98.418 33.190,98.036 33.625 M115.667 33.187 C 115.667 33.718,114.821 34.924,114.218 35.252 C 113.926 35.412,113.647 35.645,113.598 35.771 C 113.550 35.897,113.339 36.009,113.130 36.019 C 112.841 36.034,112.821 36.057,113.046 36.116 C 113.405 36.209,114.584 35.298,115.458 34.253 C 115.781 33.867,115.994 32.833,115.750 32.833 C 115.704 32.833,115.667 32.992,115.667 33.187 M96.068 35.962 C 95.877 36.120,95.624 36.494,95.506 36.792 C 95.389 37.090,95.233 37.333,95.160 37.333 C 95.087 37.333,94.896 37.690,94.736 38.125 C 94.575 38.560,94.351 39.029,94.239 39.167 C 93.972 39.493,93.422 41.478,93.560 41.616 C 93.619 41.674,93.667 41.612,93.667 41.477 C 93.667 40.768,95.519 36.829,96.223 36.042 C 96.621 35.597,96.553 35.562,96.068 35.962 M66.375 36.286 C 66.627 36.324,67.040 36.324,67.292 36.286 C 67.544 36.248,67.337 36.217,66.833 36.217 C 66.329 36.217,66.123 36.248,66.375 36.286 M111.125 36.287 C 111.423 36.324,111.910 36.324,112.208 36.287 C 112.506 36.250,112.263 36.220,111.667 36.220 C 111.071 36.220,110.827 36.250,111.125 36.287 M63.412 36.835 C 60.584 37.817,58.251 39.902,57.017 42.550 C 56.078 44.566,56.113 44.057,56.010 56.917 L 55.914 68.917 55.440 70.583 C 55.179 71.500,54.824 72.571,54.650 72.963 C 54.246 73.872,54.251 73.983,54.670 73.450 C 54.856 73.214,55.088 72.588,55.186 72.058 C 55.284 71.528,55.524 70.792,55.721 70.422 C 56.075 69.757,56.079 69.625,56.164 57.333 C 56.241 46.205,56.278 44.873,56.523 44.500 C 56.673 44.271,56.842 43.819,56.899 43.496 C 57.169 41.946,59.756 38.733,61.263 38.076 C 61.546 37.953,61.870 37.740,61.984 37.602 C 62.099 37.464,62.618 37.264,63.138 37.157 C 63.658 37.050,64.233 36.883,64.417 36.786 C 64.600 36.688,64.975 36.554,65.250 36.488 L 65.750 36.367 65.250 36.369 C 64.975 36.370,64.148 36.579,63.412 36.835 M69.161 36.638 C 69.554 36.958,70.232 37.173,70.813 37.161 C 70.961 37.158,70.708 37.020,70.250 36.853 C 69.792 36.687,69.267 36.495,69.083 36.427 C 68.815 36.327,68.831 36.368,69.161 36.638 M108.857 36.670 C 108.457 36.852,108.014 37.000,107.873 37.000 C 107.479 37.000,105.477 38.153,104.939 38.690 C 104.676 38.952,104.397 39.167,104.319 39.167 C 104.130 39.167,103.022 40.692,102.382 41.833 C 101.172 43.990,101.167 44.048,101.160 56.460 L 101.154 67.583 100.674 69.583 C 100.112 71.928,99.601 73.402,99.154 73.971 C 98.978 74.195,98.833 74.470,98.833 74.583 C 98.833 74.695,98.648 75.060,98.422 75.393 C 98.195 75.727,98.074 76.000,98.153 76.000 C 98.337 76.000,98.750 75.365,98.912 74.833 C 98.981 74.604,99.174 74.267,99.340 74.083 C 99.506 73.900,99.696 73.525,99.761 73.250 C 99.827 72.975,100.023 72.466,100.197 72.118 C 100.371 71.770,100.591 71.058,100.685 70.535 C 100.779 70.011,101.001 69.107,101.178 68.524 C 101.483 67.522,101.500 66.857,101.500 56.241 C 101.500 48.677,101.560 44.736,101.684 44.158 C 101.888 43.206,102.918 41.000,103.158 41.000 C 103.242 41.000,103.363 40.831,103.426 40.625 C 103.490 40.419,103.888 39.928,104.312 39.535 C 104.736 39.142,105.236 38.674,105.423 38.494 C 105.609 38.314,105.842 38.167,105.939 38.167 C 106.037 38.167,106.447 37.943,106.850 37.670 C 107.253 37.396,107.733 37.168,107.917 37.162 C 108.100 37.157,108.550 37.037,108.917 36.897 C 109.283 36.756,109.808 36.580,110.083 36.504 L 110.583 36.367 110.083 36.354 C 109.808 36.347,109.256 36.489,108.857 36.670 M83.262 37.116 C 83.484 37.445,83.667 37.798,83.667 37.901 C 83.667 38.005,83.854 38.365,84.083 38.702 C 84.313 39.040,84.500 39.408,84.500 39.522 C 84.500 39.635,84.656 40.051,84.847 40.445 C 85.038 40.840,85.257 41.370,85.333 41.623 L 85.471 42.083 85.486 41.564 C 85.494 41.279,85.354 40.860,85.176 40.633 C 84.998 40.406,84.765 39.876,84.659 39.454 C 84.552 39.032,84.323 38.558,84.149 38.401 C 83.976 38.244,83.833 38.044,83.833 37.958 C 83.833 37.646,83.303 36.691,83.082 36.606 C 82.955 36.557,83.033 36.780,83.262 37.116 M71.333 37.288 C 71.471 37.340,71.795 37.559,72.054 37.775 C 72.314 37.990,72.614 38.168,72.721 38.170 C 72.829 38.171,73.402 38.621,73.995 39.170 C 74.588 39.718,75.123 40.167,75.183 40.167 C 75.244 40.167,75.390 40.402,75.509 40.689 C 75.628 40.976,75.886 41.407,76.082 41.647 C 76.277 41.887,76.570 42.440,76.733 42.875 C 76.895 43.310,77.096 43.667,77.180 43.667 C 77.265 43.667,77.342 43.873,77.353 44.125 C 77.366 44.440,77.397 44.486,77.452 44.274 C 77.537 43.944,76.682 42.094,76.047 41.234 C 75.838 40.951,75.667 40.657,75.667 40.582 C 75.667 40.367,73.471 38.346,72.917 38.052 C 72.642 37.906,72.238 37.647,72.019 37.476 C 71.801 37.306,71.501 37.173,71.353 37.180 C 71.126 37.191,71.123 37.208,71.333 37.288 M93.253 41.995 C 92.758 42.796,92.668 45.107,92.704 56.083 L 92.741 67.250 92.839 55.667 C 92.913 46.993,92.990 43.916,93.149 43.417 C 93.541 42.183,93.595 41.442,93.253 41.995 M85.509 42.237 C 85.504 42.322,85.631 43.034,85.792 43.820 C 86.251 46.073,86.234 66.093,85.772 67.083 C 85.422 67.834,84.421 68.961,83.917 69.172 C 83.652 69.283,83.641 69.314,83.861 69.323 C 84.250 69.338,85.357 68.233,85.893 67.294 L 86.345 66.505 86.291 55.294 C 86.238 44.301,86.230 44.064,85.877 43.083 C 85.680 42.533,85.514 42.152,85.509 42.237 M141.583 42.651 C 141.400 42.715,140.971 42.895,140.630 43.051 C 140.290 43.206,139.751 43.333,139.433 43.333 C 138.666 43.333,138.409 43.452,135.655 45.083 C 135.048 45.442,132.629 47.806,132.083 48.573 C 130.937 50.184,130.663 50.742,130.487 51.832 C 130.401 52.365,130.183 53.128,130.003 53.526 C 129.483 54.670,129.525 57.846,130.081 59.417 C 130.307 60.058,130.495 60.746,130.496 60.944 C 130.508 62.151,134.455 67.500,135.334 67.500 C 135.397 67.500,135.666 67.687,135.932 67.916 C 136.199 68.146,136.499 68.333,136.600 68.333 C 136.701 68.333,137.151 68.533,137.600 68.776 C 138.049 69.020,138.813 69.277,139.298 69.346 C 139.783 69.416,140.479 69.629,140.845 69.820 C 141.803 70.319,145.790 70.333,146.969 69.841 C 147.399 69.661,148.195 69.436,148.739 69.341 C 149.299 69.242,149.883 69.022,150.083 68.833 C 150.279 68.650,150.548 68.500,150.683 68.500 C 150.891 68.500,152.387 67.639,152.917 67.214 C 153.008 67.141,153.402 66.831,153.792 66.526 C 154.902 65.658,154.820 65.073,153.375 63.532 C 152.080 62.153,151.198 61.901,150.550 62.725 C 150.380 62.940,149.979 63.203,149.657 63.309 C 149.336 63.415,148.944 63.652,148.788 63.834 C 148.631 64.017,148.334 64.167,148.127 64.168 C 147.919 64.169,147.375 64.354,146.917 64.580 C 145.787 65.135,142.610 65.196,141.648 64.680 C 141.319 64.504,140.739 64.276,140.359 64.173 C 139.978 64.071,139.667 63.917,139.667 63.831 C 139.667 63.745,139.459 63.568,139.206 63.437 C 138.647 63.148,136.667 61.231,136.667 60.978 C 136.667 60.879,136.479 60.575,136.250 60.303 C 136.021 60.031,135.833 59.622,135.833 59.394 C 135.833 58.780,135.508 57.491,135.196 56.873 C 134.957 56.398,134.952 56.282,135.158 55.956 C 135.398 55.577,135.594 54.730,135.777 53.278 C 135.835 52.817,135.979 52.434,136.113 52.382 C 136.242 52.333,136.490 52.012,136.665 51.670 C 137.064 50.888,139.224 48.873,140.000 48.559 C 140.321 48.429,140.808 48.194,141.083 48.036 C 141.497 47.799,142.029 47.750,144.167 47.750 C 146.304 47.750,146.836 47.799,147.250 48.036 C 147.525 48.194,148.012 48.438,148.333 48.579 C 149.111 48.922,149.970 49.524,150.596 50.168 C 151.199 50.787,152.307 50.673,152.692 49.953 C 152.800 49.750,153.083 49.385,153.319 49.143 C 154.990 47.433,154.857 46.377,152.833 45.281 C 152.512 45.107,152.092 44.820,151.899 44.643 C 151.706 44.465,151.258 44.273,150.903 44.216 C 150.548 44.158,150.144 43.970,150.004 43.798 C 149.835 43.591,149.386 43.434,148.667 43.331 C 148.071 43.246,147.286 43.025,146.923 42.838 C 146.242 42.489,142.422 42.355,141.583 42.651 M174.966 43.137 C 174.574 43.541,174.290 44.034,174.188 44.486 C 174.100 44.878,173.879 45.338,173.697 45.508 C 173.515 45.677,173.315 46.113,173.254 46.477 C 173.193 46.840,172.997 47.269,172.819 47.430 C 172.641 47.591,172.449 48.010,172.393 48.360 C 172.337 48.710,172.113 49.189,171.896 49.424 C 171.678 49.658,171.500 50.021,171.500 50.230 C 171.500 50.439,171.283 50.941,171.018 51.346 C 170.753 51.752,170.482 52.346,170.416 52.667 C 170.350 52.987,170.202 53.362,170.086 53.500 C 169.970 53.637,169.781 54.050,169.665 54.417 C 169.549 54.783,169.057 55.919,168.571 56.941 C 168.086 57.963,167.608 59.098,167.510 59.464 C 167.411 59.829,167.227 60.214,167.101 60.319 C 166.974 60.424,166.783 60.858,166.676 61.282 C 166.569 61.707,166.336 62.239,166.158 62.466 C 165.980 62.692,165.752 63.183,165.651 63.558 C 165.550 63.932,165.325 64.420,165.151 64.642 C 164.976 64.863,164.833 65.129,164.833 65.231 C 164.832 65.333,164.608 65.867,164.333 66.417 C 164.059 66.967,163.834 67.500,163.834 67.603 C 163.834 67.705,163.677 67.987,163.487 68.229 C 162.629 69.319,163.542 69.994,165.880 69.998 C 168.282 70.001,169.201 69.396,169.830 67.396 C 169.942 67.041,170.214 66.379,170.434 65.926 C 170.653 65.472,170.833 65.009,170.833 64.895 C 170.833 64.069,171.478 63.980,177.605 63.966 L 183.380 63.953 183.692 64.351 C 183.864 64.571,184.127 65.012,184.275 65.333 C 185.265 67.470,185.487 67.985,185.663 68.542 C 186.004 69.627,186.885 70.000,189.103 70.000 C 191.755 70.000,192.390 69.358,191.373 67.705 C 191.105 67.269,190.835 66.643,190.773 66.313 C 190.711 65.983,190.517 65.583,190.342 65.425 C 190.167 65.266,189.974 64.825,189.912 64.443 C 189.850 64.062,189.628 63.563,189.420 63.333 C 189.211 63.104,188.993 62.649,188.935 62.321 C 188.877 61.994,188.647 61.478,188.423 61.176 C 188.200 60.873,187.969 60.391,187.909 60.104 C 187.850 59.818,187.668 59.352,187.506 59.070 C 187.344 58.787,187.115 58.262,186.997 57.903 C 186.790 57.273,186.153 55.881,185.515 54.667 C 185.346 54.346,185.155 53.821,185.089 53.500 C 185.023 53.179,184.802 52.654,184.598 52.333 C 184.394 52.012,184.126 51.387,184.004 50.943 C 183.882 50.499,183.687 50.100,183.571 50.056 C 183.455 50.011,183.273 49.612,183.167 49.168 C 183.060 48.724,182.835 48.236,182.665 48.082 C 182.496 47.929,182.307 47.502,182.245 47.134 C 182.182 46.766,181.993 46.327,181.824 46.158 C 181.656 45.989,181.434 45.542,181.333 45.164 C 181.110 44.339,180.125 42.750,179.745 42.604 C 179.595 42.547,178.598 42.500,177.528 42.500 L 175.583 42.500 174.966 43.137 M202.917 42.728 C 202.589 42.969,202.583 43.192,202.539 56.044 L 202.494 69.114 202.854 69.571 C 203.337 70.186,206.455 70.182,207.280 69.566 L 207.750 69.215 207.833 65.704 C 207.879 63.774,207.969 62.142,208.032 62.078 C 208.096 62.015,209.458 61.963,211.059 61.963 C 214.272 61.962,214.632 62.062,214.989 63.054 C 215.082 63.313,215.329 63.735,215.537 63.991 C 215.910 64.449,216.205 64.916,216.963 66.239 C 217.171 66.604,217.396 66.943,217.463 66.993 C 217.529 67.043,217.713 67.365,217.872 67.708 C 218.031 68.052,218.236 68.333,218.328 68.333 C 218.420 68.333,218.600 68.583,218.727 68.888 C 219.437 70.586,224.833 70.532,224.833 68.826 C 224.833 68.572,224.661 68.244,224.417 68.031 C 224.188 67.832,224.000 67.585,224.000 67.481 C 224.000 67.378,223.794 67.051,223.542 66.755 C 223.099 66.235,222.853 65.854,222.035 64.423 C 221.825 64.056,221.363 63.411,221.007 62.990 C 219.661 61.392,219.672 60.934,221.083 60.072 C 221.629 59.739,223.160 58.171,223.164 57.941 C 223.166 57.862,223.347 57.583,223.568 57.321 C 223.789 57.058,224.053 56.485,224.153 56.047 C 224.254 55.608,224.448 54.840,224.585 54.339 C 224.860 53.329,224.909 51.070,224.674 50.167 C 224.400 49.113,223.750 47.535,223.455 47.210 C 223.297 47.034,223.167 46.818,223.167 46.730 C 223.167 46.481,221.969 45.167,221.741 45.167 C 221.630 45.167,221.416 44.980,221.267 44.753 C 221.118 44.525,220.790 44.288,220.540 44.225 C 220.289 44.163,219.889 43.969,219.651 43.794 C 219.382 43.596,218.723 43.415,217.901 43.314 C 217.176 43.225,216.358 43.024,216.083 42.868 C 215.372 42.463,203.449 42.337,202.917 42.728 M237.957 42.677 C 237.172 43.145,237.167 43.245,237.167 56.370 C 237.167 69.851,237.133 69.370,238.119 69.819 C 238.758 70.110,250.389 70.065,250.967 69.769 C 251.214 69.643,251.960 69.485,252.624 69.419 C 253.372 69.345,253.974 69.188,254.207 69.005 C 254.414 68.843,254.846 68.655,255.167 68.588 C 255.697 68.478,257.074 67.677,257.917 66.989 C 258.658 66.384,260.667 64.276,260.667 64.102 C 260.667 64.000,260.893 63.654,261.170 63.333 C 261.446 63.012,261.746 62.450,261.838 62.083 C 261.929 61.717,262.167 61.042,262.366 60.583 C 263.027 59.064,263.015 54.220,262.346 52.205 C 262.064 51.356,261.833 50.564,261.833 50.444 C 261.833 50.324,261.610 49.931,261.338 49.571 C 261.066 49.211,260.841 48.831,260.838 48.726 C 260.835 48.621,260.647 48.358,260.420 48.142 C 260.192 47.927,260.004 47.681,260.003 47.596 C 259.998 47.350,257.595 45.167,257.329 45.167 C 257.238 45.167,256.853 44.942,256.474 44.667 C 256.094 44.392,255.701 44.166,255.600 44.166 C 255.499 44.166,255.048 43.978,254.597 43.749 C 254.146 43.521,253.506 43.333,253.174 43.333 C 252.843 43.333,252.124 43.165,251.578 42.958 C 250.449 42.533,238.609 42.288,237.957 42.677 M274.937 42.882 C 274.323 43.495,274.313 43.737,274.367 56.871 L 274.417 68.993 274.879 69.455 C 275.383 69.959,278.090 70.194,280.265 69.922 C 281.755 69.736,281.691 70.072,281.723 62.266 C 281.743 57.119,281.799 55.467,281.958 55.308 C 282.125 55.142,282.167 55.149,282.167 55.345 C 282.167 55.566,282.537 56.097,284.083 58.094 C 284.358 58.449,284.715 58.873,284.875 59.036 C 285.035 59.200,285.167 59.446,285.167 59.583 C 285.167 59.721,285.241 59.833,285.331 59.833 C 285.422 59.833,285.683 60.115,285.911 60.458 C 286.392 61.181,287.778 63.021,288.391 63.750 C 289.024 64.503,290.000 65.824,290.000 65.928 C 290.000 66.071,291.059 67.401,291.292 67.550 C 291.407 67.624,291.632 67.931,291.792 68.234 C 291.952 68.536,292.377 69.038,292.736 69.350 L 293.388 69.917 295.776 69.974 C 298.418 70.037,299.561 69.741,299.756 68.943 C 300.032 67.814,299.745 43.174,299.453 42.881 C 299.196 42.623,298.773 42.576,296.320 42.527 C 293.223 42.466,292.655 42.599,292.677 43.379 L 292.688 43.750 292.839 43.373 C 293.104 42.715,296.214 42.389,298.549 42.775 C 299.719 42.968,299.667 42.334,299.667 56.405 L 299.667 68.992 299.216 69.288 C 298.844 69.533,298.312 69.592,296.122 69.637 C 293.144 69.697,292.828 69.589,291.992 68.238 C 291.788 67.906,291.462 67.466,291.268 67.259 C 291.075 67.052,290.638 66.478,290.297 65.983 C 289.469 64.782,289.342 64.615,288.173 63.193 C 287.619 62.520,287.167 61.919,287.167 61.857 C 287.167 61.795,286.885 61.397,286.542 60.974 C 286.198 60.550,285.767 59.995,285.583 59.741 C 285.400 59.487,284.836 58.747,284.331 58.098 C 283.306 56.781,282.982 56.333,282.478 55.542 C 281.620 54.192,281.500 55.042,281.500 62.493 C 281.500 67.790,281.458 68.994,281.264 69.260 C 280.882 69.783,275.590 69.848,275.042 69.337 L 274.667 68.987 274.667 56.262 C 274.667 43.987,274.678 43.523,274.985 43.143 C 275.481 42.530,279.953 42.443,280.823 43.030 C 281.330 43.373,283.803 46.397,283.825 46.702 C 283.829 46.768,283.991 46.993,284.184 47.202 C 284.376 47.412,285.012 48.221,285.596 49.000 C 286.832 50.648,287.500 51.414,287.500 51.183 C 287.500 51.093,287.361 50.921,287.191 50.801 C 287.022 50.681,286.749 50.324,286.586 50.006 C 286.422 49.689,286.111 49.290,285.894 49.119 C 285.677 48.949,285.500 48.706,285.500 48.581 C 285.500 48.455,285.362 48.254,285.193 48.134 C 285.024 48.015,284.787 47.731,284.667 47.503 C 284.546 47.276,284.365 47.005,284.265 46.900 C 284.165 46.795,283.674 46.138,283.174 45.438 C 282.673 44.739,282.205 44.167,282.132 44.167 C 282.059 44.167,282.000 44.069,282.000 43.949 C 282.000 43.830,281.733 43.474,281.408 43.158 L 280.815 42.583 278.081 42.527 C 275.364 42.472,275.344 42.474,274.937 42.882 M312.949 42.683 C 312.346 43.038,312.323 43.553,312.323 56.391 L 312.323 69.065 312.748 69.491 L 313.174 69.917 323.180 69.963 L 333.187 70.010 333.849 69.638 C 334.665 69.179,334.691 69.074,334.632 66.506 L 334.583 64.429 334.017 64.048 C 333.452 63.667,333.439 63.667,327.151 63.667 L 320.852 63.667 320.593 63.296 C 320.255 62.814,320.222 60.133,320.551 59.860 C 320.695 59.740,322.692 59.663,326.483 59.631 L 332.196 59.583 332.515 59.190 C 332.690 58.973,332.831 58.673,332.827 58.523 C 332.823 58.333,332.753 58.373,332.595 58.658 C 332.244 59.293,332.087 59.309,326.284 59.322 L 320.818 59.333 320.419 59.733 C 319.902 60.249,319.980 62.885,320.533 63.587 L 320.849 63.989 327.324 64.036 C 335.211 64.094,334.500 63.825,334.500 66.747 C 334.500 68.712,334.487 68.788,334.070 69.179 L 333.640 69.583 323.460 69.629 L 313.280 69.674 312.890 69.308 L 312.500 68.942 312.500 56.243 C 312.500 43.649,312.503 43.541,312.845 43.106 L 313.191 42.667 323.004 42.667 C 334.985 42.667,333.794 42.348,333.887 45.583 C 333.932 47.148,333.938 47.094,333.928 45.216 C 333.920 43.646,333.855 42.954,333.700 42.800 C 333.415 42.515,313.425 42.403,312.949 42.683 M344.209 42.669 C 343.427 42.989,343.249 43.605,343.268 45.922 L 343.285 48.059 343.812 48.529 L 344.339 49.000 347.211 49.001 C 349.552 49.002,351.101 49.144,351.372 49.383 C 351.393 49.401,351.451 53.729,351.501 59.000 L 351.593 68.583 351.588 58.945 C 351.582 47.425,352.116 48.834,347.760 48.833 C 344.684 48.832,344.568 48.819,344.098 48.443 L 343.613 48.055 343.592 45.986 C 343.571 43.807,343.721 43.161,344.324 42.838 C 344.677 42.649,365.062 42.587,365.986 42.772 C 366.831 42.941,367.000 43.476,367.000 45.988 L 367.000 48.159 366.550 48.454 C 366.165 48.707,365.618 48.758,362.800 48.804 C 359.646 48.856,359.490 48.874,359.251 49.216 C 359.035 49.525,358.999 50.903,358.995 59.162 C 358.991 66.436,358.940 68.814,358.786 69.014 C 357.977 70.068,352.341 69.958,351.669 68.875 C 351.501 68.604,351.491 68.606,351.536 68.899 C 351.657 69.698,352.353 69.913,355.022 69.974 C 357.891 70.039,358.170 69.995,358.745 69.375 L 359.167 68.920 359.170 59.335 C 359.174 50.509,359.197 49.721,359.462 49.385 C 359.739 49.034,359.881 49.018,363.140 48.968 C 367.478 48.902,367.212 49.124,367.137 45.639 C 367.091 43.544,367.039 43.133,366.786 42.880 C 366.450 42.545,345.004 42.345,344.209 42.669 M66.394 43.064 C 66.086 43.235,66.164 43.262,66.978 43.267 C 67.494 43.269,67.767 43.241,67.583 43.203 C 67.400 43.165,67.179 43.067,67.092 42.984 C 66.902 42.803,66.852 42.809,66.394 43.064 M179.772 43.524 C 180.050 43.746,182.000 47.792,182.000 48.146 C 182.000 48.346,182.710 50.073,183.414 51.583 C 184.420 53.743,184.805 54.655,184.904 55.108 C 184.967 55.396,185.160 55.760,185.333 55.917 C 185.506 56.073,185.698 56.431,185.760 56.711 C 185.821 56.992,186.051 57.558,186.269 57.969 C 186.488 58.380,186.667 58.808,186.667 58.919 C 186.667 59.030,186.806 59.301,186.975 59.519 C 187.145 59.738,187.412 60.305,187.568 60.779 C 187.724 61.253,187.959 61.731,188.091 61.840 C 188.223 61.949,188.414 62.346,188.515 62.722 C 188.616 63.098,188.840 63.584,189.012 63.803 C 189.184 64.021,189.374 64.474,189.434 64.809 C 189.494 65.143,189.598 65.492,189.665 65.583 C 189.731 65.675,189.988 66.288,190.236 66.946 C 190.484 67.604,190.795 68.232,190.927 68.342 C 191.539 68.850,190.728 69.167,188.815 69.167 C 186.778 69.167,186.455 68.888,185.676 66.461 C 185.566 66.118,185.412 65.799,185.334 65.750 C 185.256 65.702,185.067 65.286,184.914 64.825 C 184.453 63.439,184.729 63.489,177.551 63.488 C 174.074 63.487,171.102 63.535,170.948 63.594 C 170.658 63.706,169.282 66.428,168.744 67.953 C 168.365 69.028,168.043 69.167,165.912 69.167 C 163.915 69.167,163.767 69.024,164.470 67.777 C 164.748 67.284,165.027 66.607,165.090 66.272 C 165.153 65.938,165.339 65.493,165.503 65.284 C 165.667 65.076,165.884 64.598,165.985 64.222 C 166.086 63.846,166.281 63.446,166.417 63.333 C 166.554 63.219,166.778 62.748,166.915 62.286 C 167.053 61.823,167.273 61.326,167.404 61.181 C 167.535 61.035,167.768 60.542,167.922 60.083 C 168.076 59.625,168.297 59.137,168.413 59.000 C 168.529 58.862,168.718 58.450,168.833 58.083 C 168.948 57.717,169.143 57.300,169.267 57.158 C 169.390 57.016,169.607 56.573,169.748 56.173 C 169.889 55.773,170.070 55.364,170.150 55.264 C 170.230 55.165,170.636 54.221,171.052 53.167 C 171.705 51.515,172.616 49.399,173.170 48.250 C 173.259 48.067,173.446 47.583,173.587 47.175 C 173.727 46.767,173.942 46.317,174.065 46.175 C 174.187 46.033,174.411 45.544,174.562 45.089 C 174.714 44.634,175.064 44.028,175.340 43.743 L 175.842 43.225 177.713 43.299 C 178.741 43.340,179.668 43.441,179.772 43.524 M64.750 43.495 C 64.567 43.572,64.294 43.783,64.144 43.964 C 63.994 44.145,63.800 44.321,63.712 44.355 C 63.624 44.389,63.335 44.829,63.068 45.333 L 62.583 46.250 62.536 56.417 C 62.490 66.383,62.609 69.170,63.098 69.652 C 63.239 69.791,63.070 67.772,62.841 66.584 C 62.585 65.251,62.665 46.661,62.929 46.317 C 63.028 46.189,63.196 45.783,63.303 45.417 C 63.515 44.694,64.513 43.735,65.300 43.498 C 65.628 43.399,65.659 43.361,65.417 43.358 C 65.233 43.356,64.933 43.418,64.750 43.495 M68.583 43.511 C 68.858 43.593,69.177 43.788,69.291 43.945 C 69.488 44.214,69.500 44.214,69.500 43.944 C 69.500 43.653,68.870 43.322,68.364 43.348 C 68.210 43.356,68.308 43.429,68.583 43.511 M147.667 43.638 C 148.171 43.725,148.951 43.992,149.400 44.231 C 149.849 44.471,150.350 44.667,150.513 44.667 C 150.676 44.667,150.913 44.770,151.040 44.897 C 151.167 45.024,151.566 45.284,151.927 45.476 C 154.153 46.655,154.174 47.391,152.049 49.615 C 151.561 50.127,151.035 50.113,150.833 49.583 C 150.746 49.354,150.574 49.167,150.450 49.167 C 150.326 49.167,150.051 48.981,149.838 48.755 C 149.625 48.528,149.181 48.258,148.850 48.153 C 148.520 48.049,148.169 47.862,148.070 47.739 C 147.878 47.499,147.102 47.294,145.284 47.005 C 143.939 46.791,141.029 47.174,140.333 47.657 C 140.104 47.816,139.654 48.071,139.333 48.224 C 137.909 48.903,135.848 51.329,135.392 52.865 C 135.252 53.337,135.026 53.893,134.891 54.098 C 134.481 54.725,134.538 57.836,134.974 58.541 C 135.162 58.845,135.394 59.445,135.491 59.875 C 135.896 61.683,137.752 63.528,140.542 64.896 L 141.834 65.529 144.463 65.473 C 146.890 65.421,147.129 65.388,147.568 65.042 C 147.830 64.836,148.323 64.593,148.664 64.501 C 149.005 64.409,149.487 64.146,149.734 63.917 C 149.981 63.688,150.284 63.500,150.406 63.500 C 150.528 63.500,150.750 63.315,150.898 63.088 C 151.265 62.528,151.802 62.741,152.864 63.866 C 153.751 64.806,153.901 65.450,153.351 65.958 C 152.613 66.640,152.167 66.959,151.663 67.168 C 151.368 67.291,151.004 67.518,150.855 67.673 C 150.706 67.829,150.283 68.050,149.917 68.166 C 149.550 68.281,149.117 68.491,148.955 68.633 C 148.793 68.775,148.043 68.992,147.288 69.116 C 142.731 69.864,140.385 69.480,136.268 67.310 C 135.312 66.806,132.967 64.319,132.141 62.933 C 128.725 57.206,130.855 48.327,136.340 45.420 C 138.967 44.028,139.481 43.818,140.667 43.649 C 141.354 43.551,141.954 43.433,142.000 43.386 C 142.125 43.258,146.615 43.458,147.667 43.638 M216.917 43.634 C 219.493 43.977,221.902 45.628,223.053 47.838 C 225.142 51.850,223.532 58.423,220.126 59.786 C 218.865 60.290,218.939 61.645,220.314 63.250 C 220.471 63.433,220.790 63.883,221.022 64.250 C 221.407 64.860,222.026 65.803,222.667 66.758 C 222.804 66.963,223.168 67.491,223.474 67.931 C 224.250 69.043,224.049 69.167,221.477 69.167 L 219.518 69.167 218.951 68.292 C 218.348 67.362,217.666 66.180,217.097 65.079 C 215.236 61.478,214.998 61.333,211.000 61.345 C 206.849 61.357,206.975 61.219,207.023 65.732 C 207.053 68.467,207.030 68.733,206.746 68.940 C 206.344 69.234,203.489 69.256,203.200 68.967 C 202.903 68.670,202.911 43.823,203.208 43.523 C 203.466 43.263,214.821 43.355,216.917 43.634 M252.000 43.628 C 252.596 43.716,253.346 43.940,253.667 44.125 C 253.987 44.311,254.523 44.511,254.857 44.569 C 255.192 44.627,255.733 44.880,256.060 45.129 C 256.387 45.379,257.014 45.840,257.453 46.153 C 259.216 47.414,261.324 50.439,261.584 52.083 C 261.642 52.450,261.842 53.178,262.029 53.700 C 262.414 54.779,262.434 58.559,262.057 59.016 C 261.951 59.145,261.771 59.737,261.656 60.333 C 261.228 62.555,258.512 66.125,256.439 67.192 C 256.244 67.293,255.933 67.505,255.750 67.665 C 255.567 67.824,255.042 68.045,254.583 68.156 C 254.125 68.267,253.631 68.466,253.486 68.597 C 252.876 69.147,238.723 69.490,238.200 68.967 C 237.930 68.697,237.909 44.148,238.178 43.645 C 238.375 43.277,249.527 43.263,252.000 43.628 M292.540 50.484 C 292.501 56.996,292.490 57.209,292.195 56.942 C 292.028 56.791,291.810 56.667,291.712 56.667 C 291.613 56.667,291.378 56.404,291.189 56.083 C 290.999 55.762,290.779 55.500,290.699 55.500 C 290.619 55.500,290.471 55.320,290.371 55.100 C 290.271 54.880,289.828 54.236,289.386 53.669 C 288.945 53.102,288.499 52.490,288.396 52.308 C 288.138 51.854,287.461 51.371,287.603 51.742 C 287.658 51.884,287.751 52.000,287.809 52.001 C 287.868 52.001,288.442 52.716,289.083 53.589 C 289.725 54.462,290.532 55.558,290.877 56.024 C 292.668 58.445,292.678 58.411,292.625 50.490 L 292.579 43.750 292.540 50.484 M47.794 44.333 C 47.726 44.563,47.670 49.475,47.669 55.250 C 47.667 63.824,47.620 66.010,47.417 67.167 C 47.059 69.199,47.143 69.683,47.548 67.917 C 47.989 65.987,48.231 42.850,47.794 44.333 M70.000 44.528 C 70.417 44.935,70.629 45.010,70.424 44.679 C 70.364 44.581,70.150 44.416,69.949 44.312 C 69.618 44.140,69.623 44.160,70.000 44.528 M77.635 55.639 L 77.686 66.417 78.093 67.281 C 78.528 68.205,79.588 69.338,80.000 69.319 C 80.222 69.308,80.222 69.297,80.000 69.213 C 79.578 69.054,78.719 68.088,78.312 67.316 L 77.926 66.583 77.838 55.805 C 77.790 49.878,77.712 44.990,77.667 44.944 C 77.621 44.898,77.606 49.711,77.635 55.639 M70.505 45.266 C 70.508 45.349,70.621 45.562,70.755 45.740 C 70.964 46.016,71.000 47.552,71.000 56.252 C 71.000 67.060,71.128 68.962,71.914 69.831 C 72.051 69.982,72.251 70.363,72.358 70.677 C 72.692 71.651,74.973 74.177,75.985 74.692 C 76.222 74.813,76.604 75.041,76.833 75.198 C 77.063 75.355,77.475 75.535,77.750 75.596 C 78.037 75.660,77.724 75.432,77.018 75.062 C 75.776 74.412,73.000 71.943,73.000 71.490 C 73.000 71.372,72.900 71.158,72.779 71.013 C 71.338 69.299,71.167 67.707,71.167 55.984 C 71.167 45.930,71.160 45.712,70.833 45.417 C 70.650 45.251,70.502 45.183,70.505 45.266 M207.583 47.235 L 207.083 47.635 207.028 51.686 C 206.962 56.494,207.022 57.064,207.629 57.461 C 208.387 57.958,215.171 57.889,216.081 57.375 C 216.446 57.169,216.916 57.000,217.124 57.000 C 217.332 57.000,217.738 56.775,218.026 56.500 C 218.314 56.225,218.608 56.000,218.679 56.000 C 219.785 56.000,220.514 51.262,219.599 50.021 C 219.378 49.722,219.110 49.266,219.004 49.009 C 218.883 48.719,218.557 48.426,218.147 48.241 C 217.783 48.077,217.333 47.811,217.147 47.650 C 216.937 47.468,216.391 47.317,215.697 47.250 C 215.084 47.191,214.366 47.074,214.100 46.988 C 212.947 46.619,208.126 46.801,207.583 47.235 M242.688 47.258 L 242.167 47.696 242.167 56.322 C 242.167 64.603,242.179 64.960,242.485 65.237 C 242.774 65.498,243.213 65.519,247.193 65.463 L 251.583 65.401 252.750 64.776 C 254.403 63.890,256.000 62.648,256.000 62.249 C 256.000 62.144,256.188 61.881,256.419 61.665 C 256.649 61.449,256.919 60.968,257.019 60.596 C 257.119 60.224,257.362 59.694,257.559 59.418 C 258.045 58.736,258.109 53.916,257.639 53.392 C 257.486 53.222,257.216 52.701,257.040 52.234 C 256.863 51.767,256.575 51.228,256.401 51.037 C 256.226 50.846,255.858 50.390,255.583 50.025 C 255.308 49.660,254.899 49.275,254.674 49.169 C 254.449 49.063,254.167 48.837,254.048 48.667 C 253.930 48.498,253.551 48.266,253.208 48.153 C 252.864 48.040,252.396 47.814,252.167 47.650 C 251.577 47.230,249.389 46.954,246.063 46.881 L 243.209 46.819 242.688 47.258 M247.847 47.728 C 250.583 47.790,251.023 47.839,251.632 48.149 C 252.010 48.342,252.409 48.500,252.519 48.500 C 252.803 48.500,254.087 49.468,254.839 50.250 C 256.081 51.541,256.465 52.093,256.723 52.960 C 256.866 53.442,257.099 54.002,257.241 54.205 C 257.597 54.712,257.603 58.099,257.250 58.566 C 257.118 58.741,256.886 59.266,256.735 59.733 C 256.583 60.201,256.281 60.775,256.063 61.009 C 255.845 61.243,255.667 61.513,255.667 61.609 C 255.667 61.860,254.561 62.960,254.034 63.233 C 253.785 63.361,253.440 63.624,253.265 63.816 C 253.091 64.009,252.829 64.167,252.683 64.168 C 252.536 64.169,252.015 64.357,251.525 64.585 C 250.193 65.205,243.103 65.238,242.938 64.625 C 242.754 63.935,242.820 47.914,243.008 47.725 C 243.104 47.629,243.535 47.575,243.966 47.604 C 244.397 47.634,246.144 47.689,247.847 47.728 M216.917 48.256 C 217.891 48.701,218.833 49.497,218.833 49.875 C 218.833 49.978,218.994 50.233,219.191 50.443 C 219.791 51.082,219.845 53.140,219.283 53.959 C 219.047 54.303,218.804 54.790,218.742 55.043 C 218.670 55.338,218.487 55.539,218.232 55.603 C 218.013 55.658,217.832 55.751,217.831 55.810 C 217.808 56.770,210.250 57.527,208.401 56.754 L 207.812 56.508 207.865 52.248 C 207.908 48.689,207.958 47.959,208.167 47.816 C 208.774 47.400,215.819 47.754,216.917 48.256 M333.769 48.111 C 333.558 48.768,332.911 48.833,326.646 48.833 L 320.674 48.833 320.440 49.208 C 320.307 49.422,320.166 50.241,320.115 51.107 C 319.974 53.474,319.601 53.333,326.032 53.333 C 331.984 53.333,332.212 53.356,332.503 53.975 C 332.639 54.266,332.738 54.339,332.792 54.190 C 332.836 54.066,332.675 53.766,332.433 53.524 L 331.993 53.083 326.378 53.033 C 322.703 53.000,320.689 52.921,320.549 52.804 C 320.222 52.534,320.257 49.850,320.593 49.370 L 320.852 49.000 327.064 49.000 L 333.275 49.000 333.655 48.595 C 333.865 48.373,334.002 48.091,333.961 47.970 C 333.913 47.831,333.843 47.882,333.769 48.111 M176.722 49.200 C 176.631 49.319,176.472 49.642,176.369 49.917 C 175.310 52.744,174.943 53.668,174.679 54.167 C 174.509 54.487,174.315 55.012,174.247 55.333 C 174.180 55.654,173.993 56.104,173.832 56.333 C 173.198 57.234,172.656 59.180,172.955 59.480 C 173.392 59.916,181.391 59.984,181.865 59.555 C 182.269 59.189,182.166 58.120,181.676 57.585 C 181.507 57.401,181.316 57.000,181.252 56.694 C 181.187 56.388,180.916 55.725,180.650 55.219 C 180.384 54.713,180.167 54.175,180.167 54.022 C 180.167 53.870,180.028 53.484,179.858 53.164 C 179.688 52.845,179.452 52.286,179.333 51.923 C 179.145 51.347,178.592 50.102,178.183 49.333 C 178.011 49.011,176.942 48.913,176.722 49.200 M178.568 52.083 C 179.572 54.229,179.832 54.826,179.996 55.360 C 180.099 55.696,180.278 56.007,180.394 56.052 C 180.511 56.096,180.701 56.558,180.817 57.077 C 180.934 57.597,181.135 58.062,181.264 58.112 C 181.575 58.231,181.563 58.579,181.238 58.905 C 181.017 59.126,180.436 59.167,177.484 59.167 L 173.992 59.167 173.833 58.750 C 173.617 58.181,173.801 57.335,174.250 56.833 C 174.455 56.604,174.664 56.149,174.713 55.822 C 174.762 55.494,174.997 54.940,175.235 54.590 C 175.472 54.240,175.667 53.846,175.667 53.715 C 175.667 53.583,175.847 53.163,176.067 52.780 C 176.287 52.397,176.520 51.821,176.584 51.500 C 176.649 51.179,176.936 50.670,177.222 50.369 L 177.743 49.822 178.038 50.703 C 178.201 51.187,178.439 51.808,178.568 52.083 M332.896 56.417 C 332.896 57.425,332.924 57.816,332.957 57.286 C 332.990 56.755,332.990 55.930,332.956 55.452 C 332.922 54.974,332.895 55.408,332.896 56.417 M92.500 67.719 C 92.500 67.931,92.357 68.401,92.181 68.763 C 92.006 69.126,91.809 69.708,91.744 70.058 C 91.678 70.407,91.518 70.734,91.389 70.784 C 91.259 70.834,91.012 71.146,90.840 71.479 C 90.668 71.811,90.162 72.458,89.715 72.917 C 88.931 73.722,88.551 74.012,87.047 74.958 C 86.661 75.201,86.378 75.434,86.419 75.475 C 86.489 75.545,86.756 75.383,88.667 74.115 C 89.552 73.528,90.384 72.646,90.819 71.833 C 90.991 71.512,91.289 71.107,91.482 70.933 C 91.675 70.758,91.833 70.511,91.833 70.383 C 91.833 70.255,91.987 69.835,92.174 69.450 C 92.516 68.747,92.804 67.333,92.606 67.333 C 92.548 67.333,92.500 67.507,92.500 67.719 M81.160 69.596 C 81.776 69.735,82.184 69.735,82.730 69.596 C 83.430 69.419,83.387 69.409,81.898 69.409 C 80.354 69.409,80.342 69.412,81.160 69.596 M46.708 70.101 C 46.502 70.336,46.334 70.616,46.334 70.722 C 46.335 70.926,47.150 70.008,47.161 69.792 C 47.170 69.600,47.113 69.639,46.708 70.101 M63.178 70.178 C 63.163 70.730,63.564 72.067,63.995 72.910 C 64.181 73.273,64.333 73.695,64.333 73.846 C 64.333 73.998,64.500 74.333,64.703 74.591 C 64.906 74.850,65.187 75.260,65.328 75.504 C 65.468 75.748,65.733 76.203,65.917 76.515 C 66.584 77.653,71.033 81.833,71.576 81.833 C 71.689 81.833,71.918 81.984,72.084 82.167 C 72.250 82.351,72.685 82.582,73.051 82.680 C 73.416 82.779,73.922 83.012,74.175 83.199 C 74.427 83.386,74.718 83.511,74.821 83.476 C 75.005 83.415,74.149 82.919,73.000 82.419 C 72.679 82.280,72.108 81.960,71.731 81.708 C 71.353 81.456,70.734 81.043,70.355 80.789 C 69.444 80.180,66.545 77.240,66.217 76.593 C 66.076 76.312,65.859 75.967,65.735 75.826 C 65.410 75.454,64.682 74.052,64.311 73.083 C 64.135 72.625,63.918 72.100,63.830 71.917 C 63.742 71.733,63.561 71.171,63.429 70.667 C 63.283 70.112,63.184 69.919,63.178 70.178 M45.704 71.759 C 45.500 71.902,45.333 72.106,45.333 72.212 C 45.333 72.515,43.314 74.340,42.669 74.619 C 42.350 74.757,41.917 75.006,41.706 75.171 C 41.496 75.337,41.015 75.524,40.638 75.588 C 40.262 75.652,39.645 75.850,39.268 76.028 C 38.327 76.475,39.153 76.340,40.667 75.801 C 42.676 75.086,43.960 74.188,45.329 72.542 C 46.249 71.436,46.291 71.348,45.704 71.759 M53.873 74.618 C 53.666 74.936,53.591 75.165,53.706 75.127 C 53.913 75.060,54.418 74.190,54.307 74.091 C 54.276 74.063,54.080 74.300,53.873 74.618 M78.990 76.010 C 79.397 76.194,79.847 76.319,79.990 76.286 C 80.321 76.211,79.094 75.665,78.605 75.670 C 78.366 75.673,78.493 75.784,78.990 76.010 M84.252 75.963 C 83.503 76.354,84.000 76.392,84.847 76.008 C 85.423 75.747,85.492 75.677,85.167 75.688 C 84.938 75.696,84.526 75.819,84.252 75.963 M52.862 76.331 C 52.661 76.602,52.593 76.787,52.710 76.742 C 52.947 76.651,53.394 76.005,53.291 75.902 C 53.256 75.867,53.062 76.059,52.862 76.331 M97.832 76.292 C 97.832 76.360,97.450 76.829,96.983 77.333 C 96.517 77.837,95.990 78.452,95.813 78.699 C 95.387 79.293,92.550 81.667,92.267 81.667 C 92.145 81.667,91.763 81.892,91.417 82.167 C 90.684 82.749,90.787 82.842,91.555 82.292 C 91.842 82.085,92.321 81.804,92.618 81.667 C 93.278 81.362,96.167 78.879,96.167 78.617 C 96.167 78.514,96.358 78.239,96.591 78.006 C 97.607 76.993,98.203 76.167,97.917 76.167 C 97.871 76.167,97.833 76.223,97.832 76.292 M37.708 76.448 C 37.869 76.490,38.131 76.490,38.292 76.448 C 38.452 76.406,38.321 76.372,38.000 76.372 C 37.679 76.372,37.548 76.406,37.708 76.448 M80.960 76.451 C 81.168 76.491,81.468 76.490,81.627 76.448 C 81.786 76.406,81.617 76.374,81.250 76.375 C 80.883 76.377,80.753 76.411,80.960 76.451 M82.542 76.448 C 82.702 76.490,82.965 76.490,83.125 76.448 C 83.285 76.406,83.154 76.372,82.833 76.372 C 82.512 76.372,82.381 76.406,82.542 76.448 M35.366 76.614 C 35.179 76.688,34.886 76.929,34.153 77.610 C 33.122 78.570,32.685 80.066,32.998 81.573 C 33.222 82.652,34.843 84.515,35.528 84.481 C 35.868 84.464,35.875 84.451,35.583 84.382 C 35.400 84.338,35.078 84.122,34.868 83.901 C 34.658 83.681,34.428 83.500,34.356 83.500 C 34.138 83.500,33.352 82.188,33.174 81.526 C 32.661 79.622,34.287 76.889,36.091 76.623 L 36.583 76.550 36.083 76.538 C 35.808 76.532,35.485 76.566,35.366 76.614 M52.208 77.253 C 51.775 78.027,49.054 80.501,47.516 81.519 C 46.562 82.150,45.896 82.667,46.035 82.667 C 46.174 82.667,46.557 82.460,46.885 82.208 C 47.214 81.956,47.806 81.563,48.200 81.333 C 49.306 80.690,52.909 77.000,52.431 77.000 C 52.386 77.000,52.286 77.114,52.208 77.253 M44.669 83.091 C 44.258 83.316,43.739 83.500,43.516 83.500 C 43.294 83.500,43.156 83.545,43.211 83.600 C 43.364 83.753,44.647 83.496,44.878 83.266 C 44.991 83.154,45.233 82.975,45.417 82.869 C 46.072 82.491,45.402 82.689,44.669 83.091 M89.583 83.079 C 89.217 83.305,89.038 83.492,89.186 83.495 C 89.334 83.498,89.634 83.361,89.853 83.192 C 90.071 83.022,90.362 82.840,90.500 82.788 C 90.722 82.704,90.722 82.692,90.500 82.681 C 90.362 82.674,89.950 82.853,89.583 83.079 M42.162 83.955 C 41.935 84.114,41.413 84.297,41.000 84.362 L 40.250 84.481 41.110 84.433 C 41.888 84.390,43.493 83.677,42.829 83.669 C 42.689 83.668,42.389 83.797,42.162 83.955 M76.164 83.790 C 76.300 83.843,76.507 83.983,76.624 84.100 C 76.863 84.340,78.195 84.582,78.531 84.447 C 78.652 84.399,78.486 84.354,78.164 84.346 C 77.842 84.339,77.299 84.183,76.956 84.000 C 76.614 83.817,76.241 83.673,76.126 83.680 C 75.993 83.688,76.007 83.729,76.164 83.790 M87.139 83.932 C 86.993 84.079,86.470 84.263,85.978 84.342 L 85.083 84.486 86.070 84.419 C 86.905 84.362,88.295 83.667,87.573 83.667 C 87.480 83.667,87.285 83.786,87.139 83.932 " stroke="none" fill="#a4d9e1" fill-rule="evenodd"></path></g></svg>